<?xml version="1.0" encoding="UTF-8"?>
<svg version="1.1" xmlns="http://www.w3.org/2000/svg" width="96" height="96">
<path d="M0 0 C31.68 0 63.36 0 96 0 C96 31.68 96 63.36 96 96 C64.32 96 32.64 96 0 96 C0 64.32 0 32.64 0 0 Z " fill="#FDFDFC" transform="translate(0,0)"/>
<path d="M0 0 C4.49163911 1.3751227 7.4200994 2.80178531 10.125 6.8125 C10.6875 9.9375 10.6875 9.9375 10.125 12.8125 C7.95106829 14.95192486 6.76489208 15.78378689 3.6875 15.921875 C2.841875 15.80328125 1.99625 15.6846875 1.125 15.5625 C0.279375 15.45421875 -0.56625 15.3459375 -1.4375 15.234375 C-3.62230891 14.856235 -5.72575797 14.34981051 -7.875 13.8125 C-9.28866158 13.60354637 -10.70560623 13.41559594 -12.125 13.25 C-13.3625 13.105625 -14.6 12.96125 -15.875 12.8125 C-15.875 14.7925 -15.875 16.7725 -15.875 18.8125 C-15.215 19.1425 -14.555 19.4725 -13.875 19.8125 C-15.0815625 20.92625 -15.0815625 20.92625 -16.3125 22.0625 C-18.64488591 24.56554829 -19.51034394 25.5305955 -19.875 28.8125 C-18.885 28.4825 -17.895 28.1525 -16.875 27.8125 C-16.27767181 30.57514289 -15.875 32.97282769 -15.875 35.8125 C-16.535 35.8125 -17.195 35.8125 -17.875 35.8125 C-17.76137738 37.2925841 -17.63377092 38.77160074 -17.5 40.25 C-17.43039063 41.07371094 -17.36078125 41.89742187 -17.2890625 42.74609375 C-17.08410156 43.76896484 -17.08410156 43.76896484 -16.875 44.8125 C-15.885 45.3075 -15.885 45.3075 -14.875 45.8125 C-14.20833333 47.47916667 -13.54166667 49.14583333 -12.875 50.8125 C-11.885 51.3075 -11.885 51.3075 -10.875 51.8125 C-11.22286708 49.83713255 -11.22286708 49.83713255 -11.875 47.8125 C-12.865 47.3175 -12.865 47.3175 -13.875 46.8125 C-13.215 46.1525 -12.555 45.4925 -11.875 44.8125 C-10.885 45.3075 -10.885 45.3075 -9.875 45.8125 C-5.83266279 46.21362411 -5.83266279 46.21362411 -1.875 45.8125 C1.12833267 43.47913334 1.12833267 43.47913334 3.125 40.8125 C2.17625 40.565 1.2275 40.3175 0.25 40.0625 C-2.875 38.8125 -2.875 38.8125 -4.25 37.0625 C-5.03181638 34.24796104 -5.00710983 31.71891633 -4.875 28.8125 C-6.195 28.4825 -7.515 28.1525 -8.875 27.8125 C-7.885 27.8125 -6.895 27.8125 -5.875 27.8125 C-6.37 25.8325 -6.37 25.8325 -6.875 23.8125 C-6.215 24.1425 -5.555 24.4725 -4.875 24.8125 C-4.875 25.8025 -4.875 26.7925 -4.875 27.8125 C-4.215 28.1425 -3.555 28.4725 -2.875 28.8125 C-2.875 30.1325 -2.875 31.4525 -2.875 32.8125 C-1.885 32.4825 -0.895 32.1525 0.125 31.8125 C0.455 32.8025 0.785 33.7925 1.125 34.8125 C2.775 34.8125 4.425 34.8125 6.125 34.8125 C6.62 33.8225 6.62 33.8225 7.125 32.8125 C7.6033279 36.00135264 7.53673783 38.12627028 5.859375 40.921875 C3.75346659 43.72293764 1.6038452 46.3336548 -0.875 48.8125 C1.00816159 49.92086423 1.00816159 49.92086423 3.125 50.8125 C3.785 50.4825 4.445 50.1525 5.125 49.8125 C10.09798051 49.10352111 13.94302629 49.24366757 18.125 52.1875 C21.125 54.8125 21.125 54.8125 22.125 56.8125 C22.59079547 64.14877866 22.59079547 64.14877866 20.90234375 66.5546875 C18.60268563 68.18213786 17.22566166 68.12122442 14.4375 68 C13.22513672 67.95939453 13.22513672 67.95939453 11.98828125 67.91796875 C11.37339844 67.88316406 10.75851563 67.84835938 10.125 67.8125 C10.125 67.1525 10.125 66.4925 10.125 65.8125 C9.465 65.8125 8.805 65.8125 8.125 65.8125 C7.795 65.1525 7.465 64.4925 7.125 63.8125 C4.54644939 64.24225843 2.39687163 64.67244492 0.0625 65.875 C-1.875 66.8125 -1.875 66.8125 -5.875 66.8125 C-1.04591751 72.5702522 3.71323007 77.40875301 9.875 81.75 C12.58194535 84.23136657 13.24521649 86.29336597 14.125 89.8125 C10.165 90.8025 10.165 90.8025 6.125 91.8125 C6.125 92.1425 6.125 92.4725 6.125 92.8125 C0.34090487 92.83720049 -5.44315962 92.85536023 -11.22729492 92.86743164 C-13.19539932 92.8724635 -15.16349997 92.87928958 -17.1315918 92.88793945 C-19.95883101 92.90005517 -22.78602084 92.90573976 -25.61328125 92.91015625 C-26.93529289 92.91789818 -26.93529289 92.91789818 -28.28401184 92.92579651 C-29.5149482 92.92590981 -29.5149482 92.92590981 -30.77075195 92.92602539 C-31.85330009 92.92935631 -31.85330009 92.92935631 -32.9577179 92.93275452 C-34.875 92.8125 -34.875 92.8125 -37.875 91.8125 C-37.545 91.1525 -37.215 90.4925 -36.875 89.8125 C-36.215 90.1425 -35.555 90.4725 -34.875 90.8125 C-34.648125 90.049375 -34.42125 89.28625 -34.1875 88.5 C-32.56606292 85.17991455 -31.19244527 84.3554978 -27.875 82.8125 C-25.0625 82.125 -25.0625 82.125 -22.875 81.8125 C-23.535 80.8225 -24.195 79.8325 -24.875 78.8125 C-23.885 77.8225 -22.895 76.8325 -21.875 75.8125 C-23.82716435 73.86033565 -25.40699953 72.96423355 -27.875 71.8125 C-24.905 70.8225 -24.905 70.8225 -21.875 69.8125 C-21.875 68.4925 -21.875 67.1725 -21.875 65.8125 C-24.185 65.4825 -26.495 65.1525 -28.875 64.8125 C-28.875 64.1525 -28.875 63.4925 -28.875 62.8125 C-27.885 62.3175 -27.885 62.3175 -26.875 61.8125 C-26.875 60.4925 -26.875 59.1725 -26.875 57.8125 C-30.25003669 58.9983237 -32.52222731 60.08823689 -34.875 62.8125 C-35.65875 62.338125 -36.4425 61.86375 -37.25 61.375 C-38.76448678 60.47351977 -40.2985897 59.60070515 -41.875 58.8125 C-41.27748224 60.23198382 -40.67165924 61.64797293 -40.0625 63.0625 C-39.72605469 63.85140625 -39.38960937 64.6403125 -39.04296875 65.453125 C-37.29396148 68.98623667 -36.12121082 71.28654016 -32.39453125 72.859375 C-31.50121094 73.09140625 -30.60789062 73.3234375 -29.6875 73.5625 C-28.33591797 73.92601563 -28.33591797 73.92601563 -26.95703125 74.296875 C-26.26996094 74.46703125 -25.58289062 74.6371875 -24.875 74.8125 C-24.875 75.1425 -24.875 75.4725 -24.875 75.8125 C-27.845 75.4825 -30.815 75.1525 -33.875 74.8125 C-33.38 75.8025 -33.38 75.8025 -32.875 76.8125 C-31.225 76.8125 -29.575 76.8125 -27.875 76.8125 C-31.14045761 78.69641785 -34.15611761 79.30537967 -37.875 79.8125 C-37.875 79.1525 -37.875 78.4925 -37.875 77.8125 C-36.885 77.8125 -35.895 77.8125 -34.875 77.8125 C-34.875 77.1525 -34.875 76.4925 -34.875 75.8125 C-39.77062693 77.68952327 -39.77062693 77.68952327 -43.875 80.8125 C-41.895 82.4625 -39.915 84.1125 -37.875 85.8125 C-38.205 86.8025 -38.535 87.7925 -38.875 88.8125 C-39.26300781 88.18859375 -39.65101562 87.5646875 -40.05078125 86.921875 C-42.26735165 84.35881715 -43.81612399 83.90571455 -47.0625 83.0625 C-48.41408203 82.69898437 -48.41408203 82.69898437 -49.79296875 82.328125 C-50.48003906 82.15796875 -51.16710937 81.9878125 -51.875 81.8125 C-51.875 80.4925 -51.875 79.1725 -51.875 77.8125 C-52.535 77.1525 -53.195 76.4925 -53.875 75.8125 C-51.565 73.8325 -49.255 71.8525 -46.875 69.8125 C-47.88457992 64.56194169 -47.88457992 64.56194169 -51.5 60.875 C-52.675625 60.3490625 -52.675625 60.3490625 -53.875 59.8125 C-54.205 60.8025 -54.535 61.7925 -54.875 62.8125 C-54.215 63.1425 -53.555 63.4725 -52.875 63.8125 C-52.545 64.4725 -52.215 65.1325 -51.875 65.8125 C-53.525 65.4825 -55.175 65.1525 -56.875 64.8125 C-57.205 63.4925 -57.535 62.1725 -57.875 60.8125 C-57.215 60.8125 -56.555 60.8125 -55.875 60.8125 C-56.535 59.4925 -57.195 58.1725 -57.875 56.8125 C-56.885 56.3175 -56.885 56.3175 -55.875 55.8125 C-55.545 55.1525 -55.215 54.4925 -54.875 53.8125 C-54.215 54.1425 -53.555 54.4725 -52.875 54.8125 C-52.875 54.1525 -52.875 53.4925 -52.875 52.8125 C-51.885 52.8125 -50.895 52.8125 -49.875 52.8125 C-49.545 51.4925 -49.215 50.1725 -48.875 48.8125 C-49.65875 48.565 -50.4425 48.3175 -51.25 48.0625 C-54.34539641 46.58850171 -54.74901517 45.97598118 -55.875 42.8125 C-55.921875 39.8671875 -55.921875 39.8671875 -55.625 36.6875 C-55.53734375 35.63304687 -55.4496875 34.57859375 -55.359375 33.4921875 C-54.875 30.8125 -54.875 30.8125 -52.875 28.8125 C-51.22508418 28.10539322 -49.55937744 27.43306011 -47.875 26.8125 C-48.865 26.1525 -49.855 25.4925 -50.875 24.8125 C-49.555 23.8225 -48.235 22.8325 -46.875 21.8125 C-46.545 22.1425 -46.215 22.4725 -45.875 22.8125 C-45.50375 22.008125 -45.1325 21.20375 -44.75 20.375 C-42.875 17.8125 -42.875 17.8125 -40.0625 16.875 C-36.52669465 16.80567048 -34.18841003 17.63900062 -30.875 18.8125 C-27.62455291 18.98048469 -27.62455291 18.98048469 -24.875 18.8125 C-24.875 16.51998122 -24.9517013 14.22733973 -25.0625 11.9375 C-25.04379455 6.83091081 -23.16335243 4.3021575 -19.875 0.5 C-13.71498969 -2.9650058 -6.64401081 -1.56224038 0 0 Z " fill="#593801" transform="translate(69.875,3.1875)"/>
<path d="M0 0 C0.66 0.33 1.32 0.66 2 1 C0.02 1.99 0.02 1.99 -2 3 C-2 3.66 -2 4.32 -2 5 C0.31 4.34 2.62 3.68 5 3 C4.01 4.65 3.02 6.3 2 8 C5.99455527 7.38545304 8.74466336 5.29353263 12 3 C11.8125 5.3125 11.8125 5.3125 11 8 C8.5 9.6875 8.5 9.6875 6 11 C5.67 11.66 5.34 12.32 5 13 C6.98 12.67 8.96 12.34 11 12 C10.67 13.32 10.34 14.64 10 16 C11.32 15.67 12.64 15.34 14 15 C14 16.32 14 17.64 14 19 C13.34 19.66 12.68 20.32 12 21 C12.33 21.66 12.66 22.32 13 23 C13.66 21.68 14.32 20.36 15 19 C19.27611541 19.49653333 21.06761764 20.64917363 23.9375 23.8125 C26.35866759 26.37985129 28.33754892 28.22290966 31.3125 30.1875 C34.25613246 32.17274049 35.49156329 33.81552251 37 37 C37 37.66 37 38.32 37 39 C34.36 39.66 31.72 40.32 29 41 C29 41.33 29 41.66 29 42 C23.21590487 42.02470049 17.43184038 42.04286023 11.64770508 42.05493164 C9.67960068 42.0599635 7.71150003 42.06678958 5.7434082 42.07543945 C2.91616899 42.08755517 0.08897916 42.09323976 -2.73828125 42.09765625 C-4.06029289 42.10539818 -4.06029289 42.10539818 -5.40901184 42.11329651 C-6.22963608 42.11337204 -7.05026031 42.11344757 -7.89575195 42.11352539 C-8.97830009 42.11685631 -8.97830009 42.11685631 -10.0827179 42.12025452 C-12 42 -12 42 -15 41 C-14.67 40.34 -14.34 39.68 -14 39 C-13.34 39.33 -12.68 39.66 -12 40 C-11.773125 39.236875 -11.54625 38.47375 -11.3125 37.6875 C-9.69106292 34.36741455 -8.31744527 33.5429978 -5 32 C-2.1875 31.3125 -2.1875 31.3125 0 31 C-0.66 30.01 -1.32 29.02 -2 28 C-1.01 27.01 -0.02 26.02 1 25 C-0.95216435 23.04783565 -2.53199953 22.15173355 -5 21 C-3.02 20.34 -1.04 19.68 1 19 C1 17.68 1 16.36 1 15 C-1.31 14.67 -3.62 14.34 -6 14 C-6 13.34 -6 12.68 -6 12 C-5.34 11.67 -4.68 11.34 -4 11 C-4 9.35 -4 7.7 -4 6 C-5.99954746 5.95745644 -8.00041636 5.95919217 -10 6 C-10.33 6.33 -10.66 6.66 -11 7 C-12.66617115 7.04063832 -14.33388095 7.042721 -16 7 C-16.33 6.01 -16.66 5.02 -17 4 C-16.34 3.34 -15.68 2.68 -15 2 C-12.20162493 2.14658155 -9.49588012 2.58216381 -6.7265625 3.00390625 C-3.4623837 2.99922978 -2.35184261 2.17907692 0 0 Z " fill="#D99A22" transform="translate(47,54)"/>
<path d="M0 0 C2.15758551 0.55355929 2.15758551 0.55355929 5.0625 0.375 C8 0.4375 8 0.4375 11 2.4375 C11.29296875 5.2578125 11.29296875 5.2578125 11.1875 8.5625 C11.14689453 10.20605469 11.14689453 10.20605469 11.10546875 11.8828125 C11.07066406 12.72585937 11.03585938 13.56890625 11 14.4375 C10.34 14.4375 9.68 14.4375 9 14.4375 C9 15.0975 9 15.7575 9 16.4375 C10.32 16.4375 11.64 16.4375 13 16.4375 C13 19.10416667 13 21.77083333 13 24.4375 C12.01 24.4375 11.02 24.4375 10 24.4375 C10 25.0975 10 25.7575 10 26.4375 C10.99 26.7675 11.98 27.0975 13 27.4375 C13 28.0975 13 28.7575 13 29.4375 C8.25 30.5625 8.25 30.5625 6 29.4375 C6.33 30.7575 6.66 32.0775 7 33.4375 C4.83125748 32.93146008 3.00032373 32.43766187 1 31.4375 C1 32.0975 1 32.7575 1 33.4375 C-0.258125 33.47875 -1.51625 33.52 -2.8125 33.5625 C-3.52019531 33.58570313 -4.22789063 33.60890625 -4.95703125 33.6328125 C-7 33.4375 -7 33.4375 -10 31.4375 C-12.53435644 30.94980312 -15.06488863 30.61679236 -17.625 30.29296875 C-20 29.4375 -20 29.4375 -21.82421875 27.25 C-23.21734959 23.91759401 -23.18996659 21.82483063 -22.8125 18.25 C-22.71582031 17.20457031 -22.61914062 16.15914062 -22.51953125 15.08203125 C-22 12.4375 -22 12.4375 -20 10.4375 C-18.35008418 9.73039322 -16.68437744 9.05806011 -15 8.4375 C-15.99 7.7775 -16.98 7.1175 -18 6.4375 C-16.68 5.4475 -15.36 4.4575 -14 3.4375 C-13.67 3.7675 -13.34 4.0975 -13 4.4375 C-12.54625 3.633125 -12.0925 2.82875 -11.625 2 C-8.52331218 -2.8911231 -5.0630088 -1.42397122 0 0 Z " fill="#F3A811" transform="translate(37,21.5625)"/>
<path d="M0 0 C1.32 0 2.64 0 4 0 C4.495 1.98 4.495 1.98 5 4 C4.01 4.33 3.02 4.66 2 5 C2 5.66 2 6.32 2 7 C4.31 7 6.62 7 9 7 C9.495 9.475 9.495 9.475 10 12 C9.01 12.66 8.02 13.32 7 14 C7.99 15.65 8.98 17.3 10 19 C9.01 19.99 8.02 20.98 7 22 C7.66 22.99 8.32 23.98 9 25 C7.9275 25.28875 6.855 25.5775 5.75 25.875 C1.67592022 27.04380516 1.67592022 27.04380516 -2 29 C-2.68268138 30.32520503 -3.3507041 31.65812182 -4 33 C-5.485 33.495 -5.485 33.495 -7 34 C-5.515 34.495 -5.515 34.495 -4 35 C-8.56216465 35.14532035 -13.12373362 35.23408477 -17.6875 35.3125 C-19.62786133 35.3753418 -19.62786133 35.3753418 -21.60742188 35.43945312 C-23.47817383 35.46362305 -23.47817383 35.46362305 -25.38671875 35.48828125 C-26.53358154 35.51446533 -27.68044434 35.54064941 -28.86206055 35.56762695 C-32.95021363 34.82811432 -34.43536798 33.18876149 -37 30 C-37 29.34 -37 28.68 -37 28 C-36.34 28 -35.68 28 -35 28 C-34.74863281 27.39800781 -34.49726562 26.79601562 -34.23828125 26.17578125 C-32.15723858 22.51918577 -28.78541907 20.67919163 -25 19 C-22 19.1875 -22 19.1875 -20 20 C-20 20.99 -20 21.98 -20 23 C-18.35500958 23.66874384 -16.70898352 24.33494074 -15.0625 25 C-14.14597656 25.37125 -13.22945312 25.7425 -12.28515625 26.125 C-10.25217842 27.059598 -10.25217842 27.059598 -9 27 C-10.65 25.68 -12.3 24.36 -14 23 C-10.92000054 19.32769295 -8.7517398 18.43197635 -4 18 C-4 18.66 -4 19.32 -4 20 C-4.99 20 -5.98 20 -7 20 C-7 20.66 -7 21.32 -7 22 C-5.68 21.34 -4.36 20.68 -3 20 C-3 19.01 -3 18.02 -3 17 C-1.68 17 -0.36 17 1 17 C0.113125 16.649375 -0.77375 16.29875 -1.6875 15.9375 C-5.70831737 13.58570116 -7.85349977 11.10258512 -10 7 C-10.8125 3.5625 -10.8125 3.5625 -11 1 C-5.25 2.875 -5.25 2.875 -3 4 C-2.38125 3.01 -2.38125 3.01 -1.75 2 C-0.88375 1.01 -0.88375 1.01 0 0 Z " fill="#F8F88B" transform="translate(39,61)"/>
<path d="M0 0 C0.99 0 1.98 0 3 0 C3.07347656 0.95712891 3.07347656 0.95712891 3.1484375 1.93359375 C3.22320312 2.75988281 3.29796875 3.58617187 3.375 4.4375 C3.44460937 5.26121094 3.51421875 6.08492187 3.5859375 6.93359375 C3.72257812 7.61550781 3.85921875 8.29742187 4 9 C4.66 9.33 5.32 9.66 6 10 C6 19.57 6 29.14 6 39 C-0.6 39 -7.2 39 -14 39 C-14.33 38.34 -14.66 37.68 -15 37 C-10.545 36.505 -10.545 36.505 -6 36 C-9.20639847 30.34164976 -11.47077244 27.50893288 -17 24 C-20.14416248 21.13932758 -23.21108938 18.210346 -26 15 C-26 14.34 -26 13.68 -26 13 C-24.42274653 12.29866401 -22.83788667 11.614417 -21.25 10.9375 C-20.36828125 10.55464844 -19.4865625 10.17179687 -18.578125 9.77734375 C-15.84743691 8.95399992 -14.63098653 9.0226008 -12 10 C-12 10.66 -12 11.32 -12 12 C-11.34 12 -10.68 12 -10 12 C-10 12.66 -10 13.32 -10 14 C-8.54077307 13.88590407 -7.08259402 13.75834456 -5.625 13.625 C-4.81289062 13.55539063 -4.00078125 13.48578125 -3.1640625 13.4140625 C-0.79665809 13.17107412 -0.79665809 13.17107412 1 11 C1.1971417 6.86002433 1.30765478 3.92296433 0 0 Z " fill="#FAF9F7" transform="translate(90,57)"/>
<path d="M0 0 C2.64 0 5.28 0 8 0 C8.33 0.66 8.66 1.32 9 2 C8.0625 4.125 8.0625 4.125 7 6 C7.763125 6.0825 8.52625 6.165 9.3125 6.25 C12 7 12 7 13.75 8.5625 C15.52724802 12.02813365 15.67708592 15.125031 16 19 C14.02 19.99 14.02 19.99 12 21 C12.04125 20.236875 12.0825 19.47375 12.125 18.6875 C12.22080824 15.77281584 12.22080824 15.77281584 10 13 C10.99 16.96 11.98 20.92 13 25 C15.31 25.66 17.62 26.32 20 27 C18.19587357 30.26460973 17.16605307 31.88929795 14 34 C12.0625 34.1953125 12.0625 34.1953125 10 34.125 C9.319375 34.10695312 8.63875 34.08890625 7.9375 34.0703125 C7.298125 34.04710937 6.65875 34.02390625 6 34 C5.01 34 4.02 34 3 34 C3.66 35.65 4.32 37.3 5 39 C4.01 38.67 3.02 38.34 2 38 C1.67 36.35 1.34 34.7 1 33 C0.01 32.67 -0.98 32.34 -2 32 C-2 28 -2 24 -2 20 C-1.34 20 -0.68 20 0 20 C-0.66 18.68 -1.32 17.36 -2 16 C-2.66 16 -3.32 16 -4 16 C-3.50769231 10.46153846 -3.50769231 10.46153846 -0.9375 8.125 C0.0215625 7.568125 0.0215625 7.568125 1 7 C0.67 6.67 0.34 6.34 0 6 C-0.04080783 4.00041636 -0.04254356 1.99954746 0 0 Z " fill="#EBEE81" transform="translate(54,16)"/>
<path d="M0 0 C1.65 0 3.3 0 5 0 C5.33 0.99 5.66 1.98 6 3 C7.4540625 2.7525 7.4540625 2.7525 8.9375 2.5 C21.00032916 0.89162278 21.00032916 0.89162278 26 4.375 C29 7 29 7 30 9 C30.46579547 16.33627866 30.46579547 16.33627866 28.77734375 18.7421875 C26.47768563 20.36963786 25.10066166 20.30872442 22.3125 20.1875 C21.50425781 20.16042969 20.69601563 20.13335937 19.86328125 20.10546875 C19.24839844 20.07066406 18.63351563 20.03585938 18 20 C18 19.34 18 18.68 18 18 C17.34 18 16.68 18 16 18 C15.67 17.34 15.34 16.68 15 16 C11.39007621 16.65585189 11.39007621 16.65585189 8 18 C5.6670134 18.04022391 3.33293334 18.04320247 1 18 C1.37125 17.2575 1.7425 16.515 2.125 15.75 C3.26008298 13.09467178 3.26008298 13.09467178 2.3125 10.8125 C0.95788046 8.72017136 0.95788046 8.72017136 -2 7 C-1.125 2.25 -1.125 2.25 0 0 Z " fill="#DE9D26" transform="translate(62,51)"/>
<path d="M0 0 C1.8125 0.1875 1.8125 0.1875 4 1 C5.87276598 3.63574472 6.97664169 5.92992508 8 9 C10.01508358 9.73323796 10.01508358 9.73323796 12 10 C12 10.66 12 11.32 12 12 C13.65 12 15.3 12 17 12 C16.6875 15.375 16.6875 15.375 16 19 C12.955498 21.029668 12.39723672 21.24856301 8.98754883 21.22705078 C8.18694534 21.22689972 7.38634186 21.22674866 6.56147766 21.22659302 C5.70201035 21.21627045 4.84254303 21.20594788 3.95703125 21.1953125 C3.0734343 21.1924826 2.18983734 21.18965271 1.27946472 21.18673706 C-1.54299454 21.17554097 -4.36513662 21.15043751 -7.1875 21.125 C-9.10090688 21.11496946 -11.01431873 21.10584374 -12.92773438 21.09765625 C-17.61861182 21.07560351 -22.30925213 21.04107762 -27 21 C-26.6875 18.625 -26.6875 18.625 -26 16 C-23 14 -23 14 -20 14 C-20 13.34 -20 12.68 -20 12 C-13.49686791 11.53549057 -9.5825192 12.67424388 -4 16 C-3.34 14.35 -2.68 12.7 -2 11 C-0.0625 11.75 -0.0625 11.75 2 13 C2.75 15.125 2.75 15.125 3 17 C2.67 16.34 2.34 15.68 2 15 C1.34 15 0.68 15 0 15 C0.99 16.485 0.99 16.485 2 18 C3.98 17.67 5.96 17.34 8 17 C7.01 16.67 6.02 16.34 5 16 C1 10.74285714 1 10.74285714 1 7 C0.68330179 4.66435067 0.35179197 2.3306218 0 0 Z " fill="#FAA617" transform="translate(63,75)"/>
<path d="M0 0 C6.77176629 0.24098812 11.77183369 0.45975031 17 5 C18.41441874 7.82883747 18.31900332 9.87376745 18 13 C15.83954406 15.16045594 14.6424966 15.97117002 11.5625 16.109375 C10.716875 15.99078125 9.87125 15.8721875 9 15.75 C8.154375 15.64171875 7.30875 15.5334375 6.4375 15.421875 C4.25269109 15.043735 2.14924203 14.53731051 0 14 C-1.41366158 13.79104637 -2.83060623 13.60309594 -4.25 13.4375 C-5.4875 13.293125 -6.725 13.14875 -8 13 C-8 14.65 -8 16.3 -8 18 C-8.66 16.68 -9.32 15.36 -10 14 C-11.32 14 -12.64 14 -14 14 C-14 11.69 -14 9.38 -14 7 C-12.865625 6.566875 -11.73125 6.13375 -10.5625 5.6875 C-9.386875 5.130625 -8.21125 4.57375 -7 4 C-6.67 3.01 -6.34 2.02 -6 1 C-4.02 1 -2.04 1 0 1 C0 0.67 0 0.34 0 0 Z " fill="#9C460C" transform="translate(62,3)"/>
<path d="M0 0 C4.5570593 -0.71204052 7.67079637 0.93119857 11.39453125 3.35546875 C13.40346631 5.41328301 13.5151212 6.47475465 13.5 9.3125 C13.335 10.529375 13.17 11.74625 13 13 C21.53120323 18.18273332 21.53120323 18.18273332 31 21 C31 21.33 31 21.66 31 22 C28.03 21.67 25.06 21.34 22 21 C22.33 21.66 22.66 22.32 23 23 C24.65 23 26.3 23 28 23 C24.73454239 24.88391785 21.71888239 25.49287967 18 26 C18 25.34 18 24.68 18 24 C18.99 24 19.98 24 21 24 C21 23.34 21 22.68 21 22 C16.10437307 23.87702327 16.10437307 23.87702327 12 27 C13.98 28.65 15.96 30.3 18 32 C17.67 32.99 17.34 33.98 17 35 C16.61199219 34.37609375 16.22398438 33.7521875 15.82421875 33.109375 C13.60764835 30.54631715 12.05887601 30.09321455 8.8125 29.25 C7.91144531 29.00765625 7.01039062 28.7653125 6.08203125 28.515625 C5.39496094 28.34546875 4.70789063 28.1753125 4 28 C4 26.68 4 25.36 4 24 C3.34 23.34 2.68 22.68 2 22 C4.31 20.02 6.62 18.04 9 16 C7.99042008 10.74944169 7.99042008 10.74944169 4.375 7.0625 C3.59125 6.711875 2.8075 6.36125 2 6 C1.67 6.99 1.34 7.98 1 9 C1.66 9.33 2.32 9.66 3 10 C3.33 10.66 3.66 11.32 4 12 C2.35 11.67 0.7 11.34 -1 11 C-1.33 9.68 -1.66 8.36 -2 7 C-1.34 7 -0.68 7 0 7 C-0.66 5.68 -1.32 4.36 -2 3 C-1.34 2.67 -0.68 2.34 0 2 C0 1.34 0 0.68 0 0 Z " fill="#CFCE89" transform="translate(14,57)"/>
<path d="M0 0 C0.66 0.33 1.32 0.66 2 1 C2 2.32 2 3.64 2 5 C2.804375 5.2475 3.60875 5.495 4.4375 5.75 C7 7 7 7 7.9375 8.8125 C8.0172568 11.60398817 7.18198059 13.49698229 6 16 C9.02505386 20.26047719 9.02505386 20.26047719 13.3125 22.875 C13.869375 22.91625 14.42625 22.9575 15 23 C14.34 20.69 13.68 18.38 13 16 C14.98 17.32 16.96 18.64 19 20 C19.33 19.34 19.66 18.68 20 18 C23 22.625 23 22.625 23 26 C23.94978897 28.15028304 23.94978897 28.15028304 25 30 C25.66 30 26.32 30 27 30 C27.33 29.34 27.66 28.68 28 28 C28.495 29.98 28.495 29.98 29 32 C26.36 32.33 23.72 32.66 21 33 C20.67 31.68 20.34 30.36 20 29 C20.66 28.67 21.32 28.34 22 28 C20.68 27.01 19.36 26.02 18 25 C17.67 26.98 17.34 28.96 17 31 C16.01 31 15.02 31 14 31 C13.67 30.01 13.34 29.02 13 28 C8.71 27.34 4.42 26.68 0 26 C0 26.66 0 27.32 0 28 C-0.78375 28.226875 -1.5675 28.45375 -2.375 28.6875 C-5.21875 29.78125 -5.21875 29.78125 -6.3125 32.625 C-6.539375 33.40875 -6.76625 34.1925 -7 35 C-8.32 34.67 -9.64 34.34 -11 34 C-10.67 33.34 -10.34 32.68 -10 32 C-9.34 32.33 -8.68 32.66 -8 33 C-7.773125 32.236875 -7.54625 31.47375 -7.3125 30.6875 C-5.69106292 27.36741455 -4.31744527 26.5429978 -1 25 C1.8125 24.3125 1.8125 24.3125 4 24 C3.34 23.01 2.68 22.02 2 21 C2.99 20.01 3.98 19.02 5 18 C3.04783565 16.04783565 1.46800047 15.15173355 -1 14 C0.98 13.34 2.96 12.68 5 12 C5 10.68 5 9.36 5 8 C2.69 7.67 0.38 7.34 -2 7 C-2 6.34 -2 5.68 -2 5 C-1.34 4.67 -0.68 4.34 0 4 C0 2.68 0 1.36 0 0 Z " fill="#CE8511" transform="translate(43,61)"/>
<path d="M0 0 C0.28875 0.598125 0.5775 1.19625 0.875 1.8125 C2.04742026 4.19327792 2.04742026 4.19327792 4 7 C4 7.99 4 8.98 4 10 C4.66 9.67 5.32 9.34 6 9 C5.67 8.01 5.34 7.02 5 6 C5.86625 6.33 6.7325 6.66 7.625 7 C11.71638935 8.21226351 14.99907413 8.58850761 19.125 7.375 C21.8314352 5.39028085 23.27156424 2.83957303 25 0 C26.32 0.33 27.64 0.66 29 1 C29 1.99 29 2.98 29 4 C28.38125 4.061875 27.7625 4.12375 27.125 4.1875 C26.42375 4.455625 25.7225 4.72375 25 5 C24.690625 5.78375 24.38125 6.5675 24.0625 7.375 C22.71992769 10.69194336 21.1335567 11.43322165 18 13 C19.91466367 12.87822312 19.91466367 12.87822312 22 12 C22.474375 11.175 22.94875 10.35 23.4375 9.5 C25 7 25 7 27.6875 6.1875 C28.450625 6.125625 29.21375 6.06375 30 6 C29.67 6.99 29.34 7.98 29 9 C29.99 9.33 30.98 9.66 32 10 C32 10.66 32 11.32 32 12 C27.25 13.125 27.25 13.125 25 12 C25.33 13.32 25.66 14.64 26 16 C23.83125748 15.49396008 22.00032373 15.00016187 20 14 C20 14.66 20 15.32 20 16 C18.741875 16.04125 17.48375 16.0825 16.1875 16.125 C15.47980469 16.14820312 14.77210937 16.17140625 14.04296875 16.1953125 C12 16 12 16 9 14 C7.45233858 13.4172881 5.88807778 12.87735813 4.3125 12.375 C3.50425781 12.11460938 2.69601563 11.85421875 1.86328125 11.5859375 C1.24839844 11.39257812 0.63351563 11.19921875 0 11 C-0.19406478 9.35492782 -0.38007935 7.70890406 -0.5625 6.0625 C-0.66691406 5.14597656 -0.77132813 4.22945312 -0.87890625 3.28515625 C-0.91886719 2.53105469 -0.95882813 1.77695312 -1 1 C-0.67 0.67 -0.34 0.34 0 0 Z " fill="#DB9F29" transform="translate(18,39)"/>
<path d="M0 0 C-0.495 0.45375 -0.99 0.9075 -1.5 1.375 C-3.22609337 2.87635519 -3.22609337 2.87635519 -3 5 C-2.01 5.33 -1.02 5.66 0 6 C-0.33 6.99 -0.66 7.98 -1 9 C-0.01 8.34 0.98 7.68 2 7 C3.32 7 4.64 7 6 7 C6.33 9.64 6.66 12.28 7 15 C4.10259378 15.13539281 1.21154379 15.23426829 -1.6875 15.3125 C-2.50412109 15.35439453 -3.32074219 15.39628906 -4.16210938 15.43945312 C-8.6474197 15.53024888 -10.41792749 15.45223124 -14.08203125 12.60546875 C-16 10 -16 10 -16 8 C-15.34 8 -14.68 8 -14 8 C-13.74992188 7.39800781 -13.49984375 6.79601562 -13.2421875 6.17578125 C-11.81687236 3.67923869 -10.54759258 2.70047763 -8.125 1.1875 C-7.44695313 0.74792969 -6.76890625 0.30835937 -6.0703125 -0.14453125 C-3.59237953 -1.16843185 -2.47510086 -0.90457722 0 0 Z " fill="#FDFD76" transform="translate(18,81)"/>
<path d="M0 0 C1.37653297 0.47474487 2.75208132 0.95240207 4.125 1.4375 C4.455 3.0875 4.785 4.7375 5.125 6.4375 C4.135 6.9325 4.135 6.9325 3.125 7.4375 C2.7125 6.9425 2.3 6.4475 1.875 5.9375 C0.00297662 4.00363908 0.00297662 4.00363908 -3.875 4.4375 C-4.205 5.4275 -4.535 6.4175 -4.875 7.4375 C-5.205 6.1175 -5.535 4.7975 -5.875 3.4375 C-6.535 3.4375 -7.195 3.4375 -7.875 3.4375 C-8.205 2.7775 -8.535 2.1175 -8.875 1.4375 C-9.865 2.9225 -9.865 2.9225 -10.875 4.4375 C-9.555 4.7675 -8.235 5.0975 -6.875 5.4375 C-7.48988281 5.69144531 -8.10476562 5.94539063 -8.73828125 6.20703125 C-9.54652344 6.55121094 -10.35476562 6.89539062 -11.1875 7.25 C-11.98800781 7.58644531 -12.78851563 7.92289063 -13.61328125 8.26953125 C-15.84015745 9.41950704 -17.22487767 10.57376961 -18.875 12.4375 C-18.875 11.7775 -18.875 11.1175 -18.875 10.4375 C-19.865 10.7675 -20.855 11.0975 -21.875 11.4375 C-21.875 12.0975 -21.875 12.7575 -21.875 13.4375 C-20.225 13.7675 -18.575 14.0975 -16.875 14.4375 C-17.535 14.7675 -18.195 15.0975 -18.875 15.4375 C-18.875 17.4175 -18.875 19.3975 -18.875 21.4375 C-20.875 20.4375 -20.875 20.4375 -21.875 17.4375 C-21.545 21.0675 -21.215 24.6975 -20.875 28.4375 C-23.875 27.4375 -23.875 27.4375 -25.078125 25.7578125 C-26.10822325 22.75840877 -25.91905909 20.46202764 -25.625 17.3125 C-25.53734375 16.25804688 -25.4496875 15.20359375 -25.359375 14.1171875 C-24.875 11.4375 -24.875 11.4375 -22.875 9.4375 C-21.22508418 8.73039322 -19.55937744 8.05806011 -17.875 7.4375 C-18.865 6.7775 -19.855 6.1175 -20.875 5.4375 C-19.555 4.4475 -18.235 3.4575 -16.875 2.4375 C-16.545 2.7675 -16.215 3.0975 -15.875 3.4375 C-15.42125 2.633125 -14.9675 1.82875 -14.5 1 C-10.86742277 -4.72829487 -5.49962398 -1.82743411 0 0 Z " fill="#907E3C" transform="translate(39.875,22.5625)"/>
<path d="M0 0 C0.66 0.33 1.32 0.66 2 1 C1.67 1.99 1.34 2.98 1 4 C1.928125 4.5775 2.85625 5.155 3.8125 5.75 C6.60292781 7.71971375 8.37411534 9.03515151 10 12 C9 15 9 15 7.22265625 16.16796875 C4.82250782 17.06644259 2.99387316 17.29952349 0.4375 17.3125 C-0.70912109 17.33763672 -0.70912109 17.33763672 -1.87890625 17.36328125 C-4.47897923 16.91796488 -5.34831388 15.99996498 -7 14 C-6.34 15.32 -5.68 16.64 -5 18 C-5.99 18 -6.98 18 -8 18 C-8.36256858 16.5437328 -8.71479793 15.08488815 -9.0625 13.625 C-9.35833984 12.40683594 -9.35833984 12.40683594 -9.66015625 11.1640625 C-10 9 -10 9 -9 7 C-8.34 7 -7.68 7 -7 7 C-6.67 6.01 -6.34 5.02 -6 4 C-4.66923011 3.65657551 -3.33568021 3.32380126 -2 3 C-1.34 2.01 -0.68 1.02 0 0 Z " fill="#F1A61D" transform="translate(30,31)"/>
<path d="M0 0 C0 0.99 0 1.98 0 3 C-5.75 3.125 -5.75 3.125 -8 2 C-8.04125 2.61875 -8.0825 3.2375 -8.125 3.875 C-8.558125 4.926875 -8.558125 4.926875 -9 6 C-12.0625 7.25 -12.0625 7.25 -15 8 C-15 9.98 -15 11.96 -15 14 C-14.01 14.33 -13.02 14.66 -12 15 C-10.9375 16.9375 -10.9375 16.9375 -10 19 C-9.34 19.66 -8.68 20.32 -8 21 C-9.2065625 22.11375 -9.2065625 22.11375 -10.4375 23.25 C-12.76988591 25.75304829 -13.63534394 26.7180955 -14 30 C-13.01 29.67 -12.02 29.34 -11 29 C-10.40267181 31.76264289 -10 34.16032769 -10 37 C-10.99 37 -11.98 37 -13 37 C-16.34004901 33.1460973 -16.40563776 29.21567917 -16.75 24.3515625 C-16.9020192 21.89600805 -16.9020192 21.89600805 -18.0625 19.375 C-19.82099375 14.92014916 -19.70264281 10.62717282 -17.8125 6.25 C-12.42925167 -0.4326531 -8.23415205 -0.51914093 0 0 Z " fill="#804912" transform="translate(64,2)"/>
<path d="M0 0 C1.32 0 2.64 0 4 0 C4.33 1.32 4.66 2.64 5 4 C4.01 4.33 3.02 4.66 2 5 C2 5.66 2 6.32 2 7 C4.31 7 6.62 7 9 7 C9.33 8.65 9.66 10.3 10 12 C7 14 7 14 4.8125 13.625 C4.214375 13.41875 3.61625 13.2125 3 13 C2.67 13.66 2.34 14.32 2 15 C-5.90601072 13.37825421 -5.90601072 13.37825421 -8.48828125 10.125 C-10.11991966 6.89732257 -11 4.65126664 -11 1 C-5.25 2.875 -5.25 2.875 -3 4 C-2.5875 3.34 -2.175 2.68 -1.75 2 C-1.1725 1.34 -0.595 0.68 0 0 Z " fill="#F4F179" transform="translate(39,61)"/>
<path d="M0 0 C1.64671412 0.30782496 3.29235576 0.62139234 4.9375 0.9375 C5.85402344 1.11152344 6.77054688 1.28554688 7.71484375 1.46484375 C10 2 10 2 11 3 C12.34747084 3.23075082 13.70377565 3.41153063 15.0625 3.5625 C16.361875 3.706875 17.66125 3.85125 19 4 C19 3.34 19 2.68 19 2 C20.65 2.66 22.3 3.32 24 4 C24 4.99 24 5.98 24 7 C18.555 6.505 18.555 6.505 13 6 C12.67 6.99 12.34 7.98 12 9 C15.62885324 9.15149298 15.62885324 9.15149298 19 8 C20.67654729 8.27942455 22.34608154 8.60828247 24 9 C23.4225 9.2475 22.845 9.495 22.25 9.75 C19.6997003 11.16683317 17.98214299 12.87627537 16 15 C15.21625 14.525625 14.4325 14.05125 13.625 13.5625 C12.11051322 12.66101977 10.5764103 11.78820515 9 11 C9.30035156 11.62648438 9.60070313 12.25296875 9.91015625 12.8984375 C10.29042969 13.71570313 10.67070312 14.53296875 11.0625 15.375 C11.44535156 16.18710938 11.82820313 16.99921875 12.22265625 17.8359375 C12.47917969 18.55007812 12.73570313 19.26421875 13 20 C12.67 20.66 12.34 21.32 12 22 C10.35 21.01 8.7 20.02 7 19 C7.33 16.36 7.66 13.72 8 11 C7.0925 10.71125 6.185 10.4225 5.25 10.125 C2.67797092 9.23468224 0.38653234 8.28505587 -2 7 C-2 6.34 -2 5.68 -2 5 C-1.01 5 -0.02 5 1 5 C1.33 3.68 1.66 2.36 2 1 C1.34 0.67 0.68 0.34 0 0 Z " fill="#C88824" transform="translate(19,51)"/>
<path d="M0 0 C0.556875 0.9590625 0.556875 0.9590625 1.125 1.9375 C3.58052793 4.63858072 5.44578805 4.68407005 9 5 C7.19587357 8.26460973 6.16605307 9.88929795 3 12 C1.0625 12.1953125 1.0625 12.1953125 -1 12.125 C-1.680625 12.10695313 -2.36125 12.08890625 -3.0625 12.0703125 C-4.0215625 12.03550781 -4.0215625 12.03550781 -5 12 C-5.99 12 -6.98 12 -8 12 C-7.34 13.65 -6.68 15.3 -6 17 C-6.99 16.67 -7.98 16.34 -9 16 C-9.33 14.35 -9.66 12.7 -10 11 C-10.99 10.67 -11.98 10.34 -13 10 C-13 7.03 -13 4.06 -13 1 C-12.319375 1.350625 -11.63875 1.70125 -10.9375 2.0625 C-7.24937313 3.23956177 -4.74188064 2.86351092 -1 2 C-0.67 1.34 -0.34 0.68 0 0 Z " fill="#F4F384" transform="translate(65,38)"/>
<path d="M0 0 C5.625 -0.25 5.625 -0.25 9 2 C9.29296875 4.8203125 9.29296875 4.8203125 9.1875 8.125 C9.16042969 9.22070312 9.13335937 10.31640625 9.10546875 11.4453125 C9.07066406 12.28835937 9.03585938 13.13140625 9 14 C8.34 14 7.68 14 7 14 C7 14.66 7 15.32 7 16 C8.32 16 9.64 16 11 16 C11 18.66666667 11 21.33333333 11 24 C8.69 24 6.38 24 4 24 C3.938125 24.598125 3.87625 25.19625 3.8125 25.8125 C3 28 3 28 1 29.8125 C-3.19631345 31.47354074 -6.63746748 30.78886754 -11 30 C-11 29.67 -11 29.34 -11 29 C-9.783125 29.061875 -8.56625 29.12375 -7.3125 29.1875 C-3.41372216 29.17367455 -1.0175304 28.65176914 2 26 C2.88658466 23.40877257 2.88658466 23.40877257 3 21 C4.65 21 6.3 21 8 21 C7.67 20.01 7.34 19.02 7 18 C3.99740483 17.66781808 3.99740483 17.66781808 2.3125 19.5 C1.879375 19.995 1.44625 20.49 1 21 C1.165 20.505 1.33 20.01 1.5 19.5 C2.20688818 15.96555911 2.06005155 12.60309299 2 9 C-0.97 8.505 -0.97 8.505 -4 8 C-3.67 7.01 -3.34 6.02 -3 5 C-2.34 5 -1.68 5 -1 5 C-0.67 4.34 -0.34 3.68 0 3 C1.9375 3.3125 1.9375 3.3125 4 4 C4.33 4.99 4.66 5.98 5 7 C4.81171228 4.55519921 4.81171228 4.55519921 4 2 C2.03241727 0.63979849 2.03241727 0.63979849 0 0 Z " fill="#B68D2A" transform="translate(39,22)"/>
<path d="M0 0 C0.66 0.33 1.32 0.66 2 1 C0.02 1.99 0.02 1.99 -2 3 C-2 3.66 -2 4.32 -2 5 C0.31 4.34 2.62 3.68 5 3 C4.01 4.65 3.02 6.3 2 8 C5.99455527 7.38545304 8.74466336 5.29353263 12 3 C11.8125 5.3125 11.8125 5.3125 11 8 C9.35178756 9.03013277 7.68496298 10.03114628 6 11 C5.12177688 13.08533633 5.12177688 13.08533633 5 15 C5.66 15 6.32 15 7 15 C6.67 15.66 6.34 16.32 6 17 C5.01 16.67 4.02 16.34 3 16 C2.67 15.34 2.34 14.68 2 14 C-0.52733235 13.34444881 -0.52733235 13.34444881 -3 13 C-3 11.35 -3 9.7 -3 8 C-5.31 7.34 -7.62 6.68 -10 6 C-10.33 6.33 -10.66 6.66 -11 7 C-12.66617115 7.04063832 -14.33388095 7.042721 -16 7 C-16.33 6.01 -16.66 5.02 -17 4 C-16.34 3.34 -15.68 2.68 -15 2 C-12.20162493 2.14658155 -9.49588012 2.58216381 -6.7265625 3.00390625 C-3.4623837 2.99922978 -2.35184261 2.17907692 0 0 Z " fill="#E1A125" transform="translate(47,54)"/>
<path d="M0 0 C2.96714383 0.32968265 4.31954439 1.23965829 6.75 3.0625 C9.85291744 7.1135311 9.6464894 8.98970718 9 14 C7.76171875 15.73046875 7.76171875 15.73046875 6 17 C3.73828125 17.29296875 3.73828125 17.29296875 1.3125 17.1875 C0.50425781 17.16042969 -0.30398437 17.13335937 -1.13671875 17.10546875 C-1.75160156 17.07066406 -2.36648437 17.03585938 -3 17 C-3 16.34 -3 15.68 -3 15 C-3.66 15 -4.32 15 -5 15 C-5.33 14.01 -5.66 13.02 -6 12 C-5.21625 11.9175 -4.4325 11.835 -3.625 11.75 C-0.95277976 11.24988075 -0.95277976 11.24988075 0.375 9.375 C1.24717908 6.06071949 0.64016848 3.32887611 0 0 Z " fill="#9D6D22" transform="translate(83,54)"/>
<path d="M0 0 C2.64 0 5.28 0 8 0 C8.33 0.66 8.66 1.32 9 2 C8.0625 4.125 8.0625 4.125 7 6 C7.763125 6.0825 8.52625 6.165 9.3125 6.25 C12 7 12 7 13.75 8.5625 C15.52724802 12.02813365 15.67708592 15.125031 16 19 C14.02 19.99 14.02 19.99 12 21 C12.04125 20.2575 12.0825 19.515 12.125 18.75 C11.99384899 15.86467775 11.61138093 14.37466663 10 12 C9.01 11.67 8.02 11.34 7 11 C7 10.34 7 9.68 7 9 C6.030625 8.87625 5.06125 8.7525 4.0625 8.625 C3.051875 8.41875 2.04125 8.2125 1 8 C-0.35439668 5.29120665 -0.06501451 2.99066732 0 0 Z " fill="#B2B177" transform="translate(54,16)"/>
<path d="M0 0 C4.49614549 -0.70252273 7.69993517 0.83121977 11.39453125 3.22265625 C13.55187922 5.61096118 13.51352094 7.13507813 13.5 10.3125 C13.37196528 11.87863893 13.21756982 13.44377142 13 15 C12.34 15 11.68 15 11 15 C10.67 15.99 10.34 16.98 10 18 C9.34 17.67 8.68 17.34 8 17 C8 15.68 8 14.36 8 13 C7.10812102 9.87842357 6.67417035 8.41639933 3.875 6.6875 C3.25625 6.460625 2.6375 6.23375 2 6 C1.67 6.99 1.34 7.98 1 9 C1.66 9.33 2.32 9.66 3 10 C3.33 10.66 3.66 11.32 4 12 C2.35 11.67 0.7 11.34 -1 11 C-1.33 9.68 -1.66 8.36 -2 7 C-1.34 7 -0.68 7 0 7 C-0.66 5.68 -1.32 4.36 -2 3 C-1.34 2.67 -0.68 2.34 0 2 C0 1.34 0 0.68 0 0 Z " fill="#979971" transform="translate(14,57)"/>
<path d="M0 0 C2.64 0.33 5.28 0.66 8 1 C8 1.66 8 2.32 8 3 C7.01 3 6.02 3 5 3 C5.33 3.66 5.66 4.32 6 5 C6.99 5.33 7.98 5.66 9 6 C8.67 6.99 8.34 7.98 8 9 C5.03 9 2.06 9 -1 9 C-1.33 9.66 -1.66 10.32 -2 11 C-4.00032373 12.00016187 -5.83125748 12.49396008 -8 13 C-8 10.69 -8 8.38 -8 6 C-6.865625 5.566875 -5.73125 5.13375 -4.5625 4.6875 C-2.7990625 3.8521875 -2.7990625 3.8521875 -1 3 C-0.67 2.01 -0.34 1.02 0 0 Z " fill="#A64202" transform="translate(56,4)"/>
<path d="M0 0 C1.08667969 0.29197266 1.08667969 0.29197266 2.1953125 0.58984375 C2.74960938 0.74582031 3.30390625 0.90179688 3.875 1.0625 C3.26492148 3.59709896 2.56323648 6.01511075 1.75 8.5 C0.90107552 11.95633539 0.86113633 13.71674988 1.875 17.0625 C-0.74441217 18.80877478 -2.16324877 19.44972388 -5.125 20.0625 C-6.115 18.7425 -7.105 17.4225 -8.125 16.0625 C-7.361875 15.505625 -6.59875 14.94875 -5.8125 14.375 C-3.11463802 12.05358388 -1.64341697 10.25916731 -0.125 7.0625 C-0.125 5.7425 -0.125 4.4225 -0.125 3.0625 C-1.775 3.3925 -3.425 3.7225 -5.125 4.0625 C-5.455 2.7425 -5.785 1.4225 -6.125 0.0625 C-3.57797384 -1.21101308 -2.6967055 -0.73941925 0 0 Z " fill="#FAF8F2" transform="translate(76.125,34.9375)"/>
<path d="M0 0 C3.85364648 0.26885906 5.76348571 0.82004348 8.875 3.1875 C11 6 11 6 11.5625 9.125 C11 12 11 12 9.28515625 13.69140625 C6.48019927 15.29766367 5.05086479 15.21540822 1.875 14.8125 C1.00617188 14.71582031 0.13734375 14.61914062 -0.7578125 14.51953125 C-3 14 -3 14 -5 12 C-2 10 -2 10 1 10 C1.33 10.66 1.66 11.32 2 12 C3.65 11.67 5.3 11.34 7 11 C6.89386164 8.54775306 6.89386164 8.54775306 6 6 C3.52363988 4.62533375 3.52363988 4.62533375 1 4 C0.67 4.99 0.34 5.98 0 7 C0 4.69 0 2.38 0 0 Z " fill="#884518" transform="translate(69,4)"/>
<path d="M0 0 C1.76953125 0.7421875 1.76953125 0.7421875 3.8125 1.875 C6.87860609 3.49461888 9.52038527 4.56504816 13 5 C13 5.33 13 5.66 13 6 C10.03 5.67 7.06 5.34 4 5 C4.33 5.66 4.66 6.32 5 7 C6.65 7 8.3 7 10 7 C6.73454239 8.88391785 3.71888239 9.49287967 0 10 C0 9.34 0 8.68 0 8 C0.99 8 1.98 8 3 8 C3 7.34 3 6.68 3 6 C-1.89562693 7.87702327 -1.89562693 7.87702327 -6 11 C-4.02 12.65 -2.04 14.3 0 16 C-0.33 16.99 -0.66 17.98 -1 19 C-1.38800781 18.37609375 -1.77601562 17.7521875 -2.17578125 17.109375 C-4.39235165 14.54631715 -5.94112399 14.09321455 -9.1875 13.25 C-10.08855469 13.00765625 -10.98960938 12.7653125 -11.91796875 12.515625 C-12.60503906 12.34546875 -13.29210937 12.1753125 -14 12 C-10.25 10 -10.25 10 -8 10 C-4.25934261 5.93416882 -4.25934261 5.93416882 -2 1 C-1.34 0.67 -0.68 0.34 0 0 Z " fill="#595924" transform="translate(32,73)"/>
<path d="M0 0 C4.00553804 3.83138422 4.21606119 6.61783503 4.62109375 12.00390625 C4.74613281 12.66261719 4.87117188 13.32132813 5 14 C5.66 14.33 6.32 14.66 7 15 C7.625 17.5625 7.625 17.5625 8 20 C5.72355197 20.73171544 4.39282575 21.11404619 2.0625 20.4375 C-0.77562988 19.83547245 -2.43200707 20.78733667 -5 22 C-5 20.35 -5 18.7 -5 17 C-2.69 17 -0.38 17 2 17 C1.505 16.54625 1.01 16.0925 0.5 15.625 C-1 14 -1 14 -1 12 C-0.01 11.67 0.98 11.34 2 11 C2 10.34 2 9.68 2 9 C1.34 8.34 0.68 7.68 0 7 C0.66 6.01 1.32 5.02 2 4 C0.68 4 -0.64 4 -2 4 C-2 3.34 -2 2.68 -2 2 C-1.34 2 -0.68 2 0 2 C0 1.34 0 0.68 0 0 Z " fill="#5C3605" transform="translate(48,34)"/>
<path d="M0 0 C0 0.99 0 1.98 0 3 C-5.75 3.125 -5.75 3.125 -8 2 C-8.04125 2.61875 -8.0825 3.2375 -8.125 3.875 C-8.558125 4.926875 -8.558125 4.926875 -9 6 C-12.0625 7.25 -12.0625 7.25 -15 8 C-15.66 11.63 -16.32 15.26 -17 19 C-19 17 -19 17 -19.3125 13.1875 C-19.16503535 8.09075288 -17.28660344 5.48763523 -14 1.6875 C-9.47010909 -0.86056364 -5.08464979 -0.32057337 0 0 Z " fill="#8D471B" transform="translate(64,2)"/>
<path d="M0 0 C4.12494151 -0.05784708 8.24977944 -0.09354407 12.375 -0.125 C13.550625 -0.14175781 14.72625 -0.15851562 15.9375 -0.17578125 C17.61972656 -0.18544922 17.61972656 -0.18544922 19.3359375 -0.1953125 C20.37282715 -0.20578613 21.4097168 -0.21625977 22.47802734 -0.22705078 C25 0 25 0 27 2 C26.34 3.32 25.68 4.64 25 6 C24.33355469 5.7834375 23.66710937 5.566875 22.98046875 5.34375 C16.0988303 3.26482146 7.89952105 0.81507845 0.9765625 3.90234375 C-0.86156284 5.06323941 -0.86156284 5.06323941 -3 7 C-2.67 5.68 -2.34 4.36 -2 3 C-1.34 3 -0.68 3 0 3 C0 2.01 0 1.02 0 0 Z " fill="#F8F7F1" transform="translate(50,0)"/>
<path d="M0 0 C0.99 0.33 1.98 0.66 3 1 C4.23076923 7.4 4.23076923 7.4 3.0625 10.4375 C2.711875 10.953125 2.36125 11.46875 2 12 C-0.3431213 11.74438677 -2.67843403 11.40729228 -5 11 C-5.33 10.34 -5.66 9.68 -6 9 C-6.66 8.67 -7.32 8.34 -8 8 C-7.3125 5.5625 -7.3125 5.5625 -6 3 C-3.4375 2.3125 -3.4375 2.3125 -1 2 C-0.67 1.34 -0.34 0.68 0 0 Z " fill="#FAA923" transform="translate(81,53)"/>
<path d="M0 0 C4.22150715 1.01628876 8.28339522 2.36679964 12.375 3.8125 C12.705 5.4625 13.035 7.1125 13.375 8.8125 C12.385 9.3075 12.385 9.3075 11.375 9.8125 C10.9625 9.3175 10.55 8.8225 10.125 8.3125 C8.25297662 6.37863908 8.25297662 6.37863908 4.375 6.8125 C4.045 7.8025 3.715 8.7925 3.375 9.8125 C3.045 8.4925 2.715 7.1725 2.375 5.8125 C1.715 5.8125 1.055 5.8125 0.375 5.8125 C0.045 5.1525 -0.285 4.4925 -0.625 3.8125 C-2.605 4.8025 -2.605 4.8025 -4.625 5.8125 C-4.955 4.4925 -5.285 3.1725 -5.625 1.8125 C-2.625 -0.1875 -2.625 -0.1875 0 0 Z " fill="#472907" transform="translate(31.625,20.1875)"/>
<path d="M0 0 C1.32 0.33 2.64 0.66 4 1 C4 1.99 4 2.98 4 4 C3.38125 4.061875 2.7625 4.12375 2.125 4.1875 C1.42375 4.455625 0.7225 4.72375 0 5 C-0.309375 5.78375 -0.61875 6.5675 -0.9375 7.375 C-2 10 -2 10 -4.125 11.875 C-8.25472498 13.49097934 -10.67955124 12.9915784 -15 12 C-15.66 11.01 -16.32 10.02 -17 9 C-14 8 -14 8 -11.0625 8.0625 C-7.86307972 7.99720571 -6.55158639 7.87116335 -4 6 C-1.75592746 2.96798075 -1.75592746 2.96798075 0 0 Z " fill="#F9F27C" transform="translate(43,39)"/>
<path d="M0 0 C2.97 0.33 5.94 0.66 9 1 C9.33 2.65 9.66 4.3 10 6 C7 8 7 8 4.8125 7.625 C4.214375 7.41875 3.61625 7.2125 3 7 C2.67 7.66 2.34 8.32 2 9 C-0.31 8.34 -2.62 7.68 -5 7 C-4.34 6.67 -3.68 6.34 -3 6 C-3 4.68 -3 3.36 -3 2 C-2.01 2 -1.02 2 0 2 C0 1.34 0 0.68 0 0 Z " fill="#FAF880" transform="translate(39,67)"/>
<path d="M0 0 C1.65 0 3.3 0 5 0 C5.33 0.99 5.66 1.98 6 3 C6.66 3 7.32 3 8 3 C9 6 9 6 7.8125 8.625 C6 11 6 11 3.8125 11.8125 C3.214375 11.874375 2.61625 11.93625 2 12 C1.67 11.01 1.34 10.02 1 9 C0.01 8.34 -0.98 7.68 -2 7 C-1.125 2.25 -1.125 2.25 0 0 Z " fill="#F4F087" transform="translate(62,51)"/>
<path d="M0 0 C0.66 0.33 1.32 0.66 2 1 C3.32860925 1.35169068 4.66158328 1.68770276 6 2 C5.13375 2.61875 5.13375 2.61875 4.25 3.25 C1.92980716 4.97129751 1.92980716 4.97129751 -0.125 7.1875 C-2 9 -2 9 -4 9 C-1.525 12.465 -1.525 12.465 1 16 C-1.31 16 -3.62 16 -6 16 C-6.62817259 5.87944162 -6.62817259 5.87944162 -4.125 2.375 C-2 1 -2 1 0 0 Z " fill="#F8F7F1" transform="translate(6,80)"/>
<path d="M0 0 C0.66 0.33 1.32 0.66 2 1 C2 1.66 2 2.32 2 3 C2.66 3 3.32 3 4 3 C4 4.65 4 6.3 4 8 C3.38125 8.103125 2.7625 8.20625 2.125 8.3125 C-0.36526484 8.87525373 -0.36526484 8.87525373 -2 12 C-5.375 13.125 -5.375 13.125 -9 14 C-9.804375 14.20625 -10.60875 14.4125 -11.4375 14.625 C-11.953125 14.74875 -12.46875 14.8725 -13 15 C-13.33 14.34 -13.66 13.68 -14 13 C-13.34 12.01 -12.68 11.02 -12 10 C-11.443125 10.268125 -10.88625 10.53625 -10.3125 10.8125 C-9.549375 10.874375 -8.78625 10.93625 -8 11 C-5.39585286 8.64587234 -5.39585286 8.64587234 -3 6 C-2.01 5.67 -1.02 5.34 0 5 C-0.33 4.01 -0.66 3.02 -1 2 C-0.67 1.34 -0.34 0.68 0 0 Z " fill="#ECA528" transform="translate(30,23)"/>
<path d="M0 0 C0.67095703 0.58007812 0.67095703 0.58007812 1.35546875 1.171875 C5.6828587 4.89952007 9.99890683 8.60388849 14.6875 11.875 C17.43045252 14.39555096 18.10748312 16.42993246 19 20 C17.35 20 15.7 20 14 20 C14.33 18.02 14.66 16.04 15 14 C13.35 14 11.7 14 10 14 C10 13.34 10 12.68 10 12 C9.4225 11.938125 8.845 11.87625 8.25 11.8125 C5.00446792 10.6405023 3.89559136 8.84338705 2 6 C0.75 2.6875 0.75 2.6875 0 0 Z " fill="#C4912F" transform="translate(65,73)"/>
<path d="M0 0 C3.0625 0.125 3.0625 0.125 5.0625 1.125 C5.0625 1.785 5.0625 2.445 5.0625 3.125 C5.7225 3.125 6.3825 3.125 7.0625 3.125 C7.3925 4.445 7.7225 5.765 8.0625 7.125 C3.14545331 8.38938344 -0.18714998 7.70845001 -4.9375 6.125 C-3.86768142 0.16458219 -3.86768142 0.16458219 0 0 Z " fill="#FBF988" transform="translate(55.9375,23.875)"/>
<path d="M0 0 C0.66 0.33 1.32 0.66 2 1 C2.36749117 8.47232038 2.36749117 8.47232038 0.78125 10.75 C-1.52119964 12.36575414 -2.90315701 12.30855839 -5.6875 12.1875 C-6.89986328 12.14689453 -6.89986328 12.14689453 -8.13671875 12.10546875 C-8.75160156 12.07066406 -9.36648437 12.03585938 -10 12 C-10.33 11.01 -10.66 10.02 -11 9 C-9.68 9.33 -8.36 9.66 -7 10 C-6.01886757 8.70982586 -5.04015801 7.41780894 -4.0625 6.125 C-3.51722656 5.40570313 -2.97195312 4.68640625 -2.41015625 3.9453125 C-0.96035376 2.05642921 -0.96035376 2.05642921 0 0 Z " fill="#503814" transform="translate(90,59)"/>
<path d="M0 0 C0.66 0.33 1.32 0.66 2 1 C2 1.99 2 2.98 2 4 C2.66 4.33 3.32 4.66 4 5 C4 6.32 4 7.64 4 9 C4.99 8.67 5.98 8.34 7 8 C7.33 8.99 7.66 9.98 8 11 C9.65 11 11.3 11 13 11 C13.33 10.34 13.66 9.68 14 9 C13.125 13.875 13.125 13.875 12 15 C9.32941149 15.14115161 6.67567762 15.04247107 4 15 C1.90649311 11.5980513 1.82057837 8.94727588 2 5 C0.68 4.67 -0.64 4.34 -2 4 C-1.01 4 -0.02 4 1 4 C0.67 2.68 0.34 1.36 0 0 Z " fill="#37360D" transform="translate(63,27)"/>
<path d="M0 0 C0 4.6091008 -2.67465029 7.57998246 -5.75 10.875 C-6.1625 11.24625 -6.575 11.6175 -7 12 C-6.67 12.66 -6.34 13.32 -6 14 C-6.66 14 -7.32 14 -8 14 C-8.33 14.66 -8.66 15.32 -9 16 C-9 14.35 -9 12.7 -9 11 C-10.65 11 -12.3 11 -14 11 C-14.33 12.32 -14.66 13.64 -15 15 C-15.66 15 -16.32 15 -17 15 C-17.12375 14.360625 -17.2475 13.72125 -17.375 13.0625 C-17.58125 12.381875 -17.7875 11.70125 -18 11 C-18.66 10.67 -19.32 10.34 -20 10 C-19.34 9.34 -18.68 8.68 -18 8 C-17.34 8.33 -16.68 8.66 -16 9 C-11.95766279 9.40112411 -11.95766279 9.40112411 -8 9 C-4.99666733 6.66663334 -4.99666733 6.66663334 -3 4 C-4.65 3.67 -6.3 3.34 -8 3 C-8 2.67 -8 2.34 -8 2 C-6.2984375 1.7834375 -6.2984375 1.7834375 -4.5625 1.5625 C-1.19222799 1.38828522 -1.19222799 1.38828522 0 0 Z " fill="#8A884B" transform="translate(76,40)"/>
<path d="M0 0 C1.65 0.33 3.3 0.66 5 1 C5.33 1.99 5.66 2.98 6 4 C6.66 4 7.32 4 8 4 C7.67 6.31 7.34 8.62 7 11 C6.34 11 5.68 11 5 11 C5 11.66 5 12.32 5 13 C5.66 13.33 6.32 13.66 7 14 C5.35 15.32 3.7 16.64 2 18 C2.165 17.505 2.33 17.01 2.5 16.5 C3.20688818 12.96555911 3.06005155 9.60309299 3 6 C0.03 5.505 0.03 5.505 -3 5 C-2.67 4.01 -2.34 3.02 -2 2 C-1.34 2 -0.68 2 0 2 C0 1.34 0 0.68 0 0 Z " fill="#BA7E23" transform="translate(38,25)"/>
<path d="M0 0 C0.66 0.33 1.32 0.66 2 1 C1.43410156 1.47050781 0.86820313 1.94101563 0.28515625 2.42578125 C-0.81505859 3.35970703 -0.81505859 3.35970703 -1.9375 4.3125 C-3.03384766 5.23482422 -3.03384766 5.23482422 -4.15234375 6.17578125 C-6.23820366 7.95975519 -6.23820366 7.95975519 -7 11 C-6.360625 11.268125 -5.72125 11.53625 -5.0625 11.8125 C-3 13 -3 13 -2 16 C-4.1875 16.3125 -4.1875 16.3125 -7 16 C-9.8125 13.625 -9.8125 13.625 -12 11 C-12 10.34 -12 9.68 -12 9 C-11.34 9 -10.68 9 -10 9 C-9.7525 8.39800781 -9.505 7.79601562 -9.25 7.17578125 C-7.79663839 4.64602369 -6.47554441 3.69375956 -4 2.1875 C-3.29875 1.74792969 -2.5975 1.30835937 -1.875 0.85546875 C-1.25625 0.57316406 -0.6375 0.29085937 0 0 Z " fill="#D1D083" transform="translate(14,80)"/>
<path d="M0 0 C0.33 0.66 0.66 1.32 1 2 C2.98 2 4.96 2 7 2 C7 3.32 7 4.64 7 6 C3.91111478 8.05925681 3.29064073 8.2390374 -0.1875 8.125 C-2.0746875 8.063125 -2.0746875 8.063125 -4 8 C-2.87548273 5.0280615 -1.77706209 2.66559313 0 0 Z " fill="#FCFB7C" transform="translate(64,42)"/>
<path d="M0 0 C0.33 0.66 0.66 1.32 1 2 C2.65 2 4.3 2 6 2 C5.6875 5.375 5.6875 5.375 5 9 C1.77208445 11.1519437 0.71599191 11.20086443 -3 11 C-3 9.35 -3 7.7 -3 6 C-2.01 5.67 -1.02 5.34 0 5 C-0.33 4.34 -0.66 3.68 -1 3 C-0.67 2.01 -0.34 1.02 0 0 Z " fill="#D89722" transform="translate(74,85)"/>
<path d="M0 0 C2.49361571 1.20381448 4.68143083 2.45428722 7 4 C8.2375 4.2165625 8.2375 4.2165625 9.5 4.4375 C12.27701087 5.06232745 13.21812199 5.84298978 15 8 C14.67 8.66 14.34 9.32 14 10 C13.01 10 12.02 10 11 10 C11 9.01 11 8.02 11 7 C6.71 6.34 2.42 5.68 -2 5 C-2 5.66 -2 6.32 -2 7 C-2.78375 7.226875 -3.5675 7.45375 -4.375 7.6875 C-7.21875 8.78125 -7.21875 8.78125 -8.3125 11.625 C-8.539375 12.40875 -8.76625 13.1925 -9 14 C-10.32 13.67 -11.64 13.34 -13 13 C-12.67 12.34 -12.34 11.68 -12 11 C-11.34 11.33 -10.68 11.66 -10 12 C-9.773125 11.236875 -9.54625 10.47375 -9.3125 9.6875 C-7.69106292 6.36741455 -6.31744527 5.5429978 -3 4 C-0.1875 3.3125 -0.1875 3.3125 2 3 C1.34 2.01 0.68 1.02 0 0 Z " fill="#895A0B" transform="translate(45,82)"/>
<path d="M0 0 C0.28875 0.598125 0.5775 1.19625 0.875 1.8125 C2.04742026 4.19327792 2.04742026 4.19327792 4 7 C4 7.99 4 8.98 4 10 C4.66 9.67 5.32 9.34 6 9 C5.67 8.01 5.34 7.02 5 6 C5.99 6.33 6.98 6.66 8 7 C9.1875 9.5625 9.1875 9.5625 10 12 C4.68098254 13.2088676 4.68098254 13.2088676 1.84765625 12.33984375 C0 11 0 11 -0.64453125 8.65234375 C-0.69996094 7.75644531 -0.75539063 6.86054687 -0.8125 5.9375 C-0.88082031 5.03902344 -0.94914062 4.14054687 -1.01953125 3.21484375 C-1 1 -1 1 0 0 Z " fill="#CB9D43" transform="translate(18,39)"/>
<path d="M0 0 C4.75 0.75 4.75 0.75 7 3 C6.625 5.625 6.625 5.625 6 8 C4.35 8.33 2.7 8.66 1 9 C0.67 8.01 0.34 7.02 0 6 C-0.66 5.67 -1.32 5.34 -2 5 C-1.34 3.35 -0.68 1.7 0 0 Z " fill="#A64403" transform="translate(70,8)"/>
<path d="M0 0 C1.32 0.66 2.64 1.32 4 2 C3.34 2 2.68 2 2 2 C2.33 2.99 2.66 3.98 3 5 C2.01 5.495 2.01 5.495 1 6 C2.32 6.66 3.64 7.32 5 8 C3.68 8 2.36 8 1 8 C1.33 8.99 1.66 9.98 2 11 C1.01 11 0.02 11 -1 11 C-1.33 12.65 -1.66 14.3 -2 16 C-2.66 15.67 -3.32 15.34 -4 15 C-4 14.34 -4 13.68 -4 13 C-4.66 12.67 -5.32 12.34 -6 12 C-4.68 11.34 -3.36 10.68 -2 10 C-2 9.34 -2 8.68 -2 8 C-2.66 7.67 -3.32 7.34 -4 7 C-3.34 5.68 -2.68 4.36 -2 3 C-1.34 3 -0.68 3 0 3 C0 2.01 0 1.02 0 0 Z " fill="#81550A" transform="translate(63,62)"/>
<path d="M0 0 C0.66 0.33 1.32 0.66 2 1 C1.67 1.99 1.34 2.98 1 4 C1.928125 4.5775 2.85625 5.155 3.8125 5.75 C6.60292781 7.71971375 8.37411534 9.03515151 10 12 C9 15 9 15 7.3125 16.1875 C4.45030907 17.19313465 2.01172092 17.13689641 -1 17 C1.33214148 15.79371992 3.49642139 14.8345262 6 14 C5.7323244 10.69866765 5.4396165 9.37496702 2.875 7.1875 C-0.58445601 5.75859426 -3.29159398 5.78185847 -7 6 C-6.67 5.34 -6.34 4.68 -6 4 C-5.360625 3.855625 -4.72125 3.71125 -4.0625 3.5625 C-1.61789145 3.13834965 -1.61789145 3.13834965 0 0 Z " fill="#A45A01" transform="translate(30,31)"/>
<path d="M0 0 C-0.66 1.32 -1.32 2.64 -2 4 C-3.32 4 -4.64 4 -6 4 C-6.33 5.32 -6.66 6.64 -7 8 C-9.31 8.66 -11.62 9.32 -14 10 C-11.125 3.25 -11.125 3.25 -10 1 C-6.70581806 -0.22006738 -3.47634765 -0.0790079 0 0 Z " fill="#7C5F21" transform="translate(81,53)"/>
<path d="M0 0 C0.66 0.33 1.32 0.66 2 1 C2 2.32 2 3.64 2 5 C2.804375 5.2475 3.60875 5.495 4.4375 5.75 C7 7 7 7 7.9375 8.8125 C8 11 8 11 6.9375 13.5 C5.69782553 15.96964387 5.69782553 15.96964387 6.875 18.3125 C7.24625 18.869375 7.6175 19.42625 8 20 C6.68 20.33 5.36 20.66 4 21 C4.33 20.01 4.66 19.02 5 18 C3.04783565 16.04783565 1.46800047 15.15173355 -1 14 C0.98 13.34 2.96 12.68 5 12 C5 10.68 5 9.36 5 8 C2.69 7.67 0.38 7.34 -2 7 C-2 6.34 -2 5.68 -2 5 C-1.34 4.67 -0.68 4.34 0 4 C0 2.68 0 1.36 0 0 Z " fill="#866A17" transform="translate(43,61)"/>
<path d="M0 0 C4.92127034 -0.16682272 8.50343896 -0.24828052 13 2 C13 2.66 13 3.32 13 4 C12.01 4 11.02 4 10 4 C10 3.34 10 2.68 10 2 C2.81343658 2.23334941 2.81343658 2.23334941 -3 6 C-3.33 6.99 -3.66 7.98 -4 9 C-4.99 9 -5.98 9 -7 9 C-6.6875 6.625 -6.6875 6.625 -6 4 C-3 2 -3 2 0 2 C0 1.34 0 0.68 0 0 Z " fill="#E3A028" transform="translate(43,87)"/>
<path d="M0 0 C2.90802461 2.21928194 4.95312762 3.92969143 7 7 C7 8.32 7 9.64 7 11 C2.25 10.25 2.25 10.25 0 8 C-1.25714286 2.51428571 -1.25714286 2.51428571 0 0 Z " fill="#F5A71C" transform="translate(51,73)"/>
<path d="M0 0 C0.33 0.66 0.66 1.32 1 2 C1.639375 2.309375 2.27875 2.61875 2.9375 2.9375 C5 4 5 4 7 7 C6 8 6 8 3.27734375 8.09765625 C1.62412109 8.08025391 1.62412109 8.08025391 -0.0625 8.0625 C-1.71958984 8.04896484 -1.71958984 8.04896484 -3.41015625 8.03515625 C-4.26480469 8.02355469 -5.11945312 8.01195313 -6 8 C-6 7.01 -6 6.02 -6 5 C-4.68 5 -3.36 5 -2 5 C-3.98 4.01 -5.96 3.02 -8 2 C-7.34 1.67 -6.68 1.34 -6 1 C-3.375 1.9375 -3.375 1.9375 -1 3 C-0.67 2.01 -0.34 1.02 0 0 Z " fill="#E2E388" transform="translate(42,73)"/>
<path d="M0 0 C0.86625 0.680625 0.86625 0.680625 1.75 1.375 C3.78471242 2.84451453 5.74902529 3.91234415 8 5 C7.38511719 5.25394531 6.77023438 5.50789063 6.13671875 5.76953125 C5.32847656 6.11371094 4.52023438 6.45789063 3.6875 6.8125 C2.88699219 7.14894531 2.08648437 7.48539063 1.26171875 7.83203125 C-0.96515745 8.98200704 -2.34987767 10.13626961 -4 12 C-4.33 11.01 -4.66 10.02 -5 9 C-4.34 8.34 -3.68 7.68 -3 7 C-3.99 6.34 -4.98 5.68 -6 5 C-4.68 4.01 -3.36 3.02 -2 2 C-1.67 2.33 -1.34 2.66 -1 3 C-0.67 2.01 -0.34 1.02 0 0 Z " fill="#765B2D" transform="translate(25,23)"/>
<path d="M0 0 C0.66 0.33 1.32 0.66 2 1 C1.505 1.45375 1.01 1.9075 0.5 2.375 C-1.22609337 3.87635519 -1.22609337 3.87635519 -1 6 C-0.01 6.33 0.98 6.66 2 7 C1.34 8.98 0.68 10.96 0 13 C-0.66 13 -1.32 13 -2 13 C-2 12.34 -2 11.68 -2 11 C-2.66 11 -3.32 11 -4 11 C-4 10.34 -4 9.68 -4 9 C-5.32 8.34 -6.64 7.68 -8 7 C-5.36 4.69 -2.72 2.38 0 0 Z " fill="#FCFB89" transform="translate(16,80)"/>
<path d="M0 0 C1.6875 0.9375 1.6875 0.9375 2.6875 2.9375 C-1.8125 6.9375 -1.8125 6.9375 -6.3125 6.9375 C-6.3125 7.5975 -6.3125 8.2575 -6.3125 8.9375 C-7.3025 8.9375 -8.2925 8.9375 -9.3125 8.9375 C-9.05908809 5.51643924 -8.00467816 4.62967816 -5.5 2.125 C-2.3125 -0.0625 -2.3125 -0.0625 0 0 Z " fill="#F6F784" transform="translate(29.3125,71.0625)"/>
<path d="M0 0 C0.99 0 1.98 0 3 0 C3.35468986 3.07397881 3.4896498 5.93573996 3 9 C0.5625 11.625 0.5625 11.625 -3 13 C-6.08307586 13.01002626 -8.98340591 12.6167259 -12 12 C-12 13.65 -12 15.3 -12 17 C-15 13.375 -15 13.375 -15 10 C-14.09636719 10.03480469 -13.19273438 10.06960938 -12.26171875 10.10546875 C-10.49248047 10.14607422 -10.49248047 10.14607422 -8.6875 10.1875 C-7.51574219 10.22230469 -6.34398437 10.25710938 -5.13671875 10.29296875 C-2.05250194 10.25361788 -2.05250194 10.25361788 -0.0625 8.71875 C1.71824701 5.83812984 0.65809108 3.17080246 0 0 Z " fill="#622E11" transform="translate(66,4)"/>
<path d="M0 0 C3.96 0.33 7.92 0.66 12 1 C12.33 1.99 12.66 2.98 13 4 C11.865625 3.979375 10.73125 3.95875 9.5625 3.9375 C6.18424326 3.58422523 6.18424326 3.58422523 5 5 C3.33382885 5.04063832 1.66611905 5.042721 0 5 C-0.33 4.01 -0.66 3.02 -1 2 C-0.67 1.34 -0.34 0.68 0 0 Z " fill="#F0A51B" transform="translate(31,56)"/>
<path d="M0 0 C2.91517292 1.07401108 4.77810176 1.77810176 7 4 C7.71927295 6.31765729 8.3909893 8.65095874 9 11 C8.01 11.66 7.02 12.32 6 13 C6 11.68 6 10.36 6 9 C5.01 9 4.02 9 3 9 C3 8.01 3 7.02 3 6 C2.01 5.67 1.02 5.34 0 5 C0 3.35 0 1.7 0 0 Z " fill="#D8D5D6" transform="translate(15,62)"/>
<path d="M0 0 C0.66 0 1.32 0 2 0 C1.6875 3.375 1.6875 3.375 1 7 C-2 9 -2 9 -4.6875 8.625 C-5.450625 8.41875 -6.21375 8.2125 -7 8 C-7 6 -7 6 -5.625 4.5 C-5.08875 4.005 -4.5525 3.51 -4 3 C-3.34 2.34 -2.68 1.68 -2 1 C-1.34 1.33 -0.68 1.66 0 2 C0 1.34 0 0.68 0 0 Z " fill="#F9F983" transform="translate(63,32)"/>
<path d="M0 0 C0.66 0.33 1.32 0.66 2 1 C1.6875 3.375 1.6875 3.375 1 6 C0.01 6.66 -0.98 7.32 -2 8 C-2 8.99 -2 9.98 -2 11 C-3.32 11.33 -4.64 11.66 -6 12 C-5.34 10.35 -4.68 8.7 -4 7 C-5.98 7.33 -7.96 7.66 -10 8 C-9 5 -9 5 -7.0625 3.75 C-6.381875 3.5025 -5.70125 3.255 -5 3 C-4.34 3.33 -3.68 3.66 -3 4 C-2.34 3.67 -1.68 3.34 -1 3 C-0.67 2.01 -0.34 1.02 0 0 Z " fill="#A46C12" transform="translate(62,59)"/>
<path d="M0 0 C0.66 0.33 1.32 0.66 2 1 C2 3.31 2 5.62 2 8 C2.66 8.33 3.32 8.66 4 9 C1.89986326 11.50400918 0.44866522 12.85392295 -2.6875 13.875 C-7.02371291 14.03863068 -10.8316652 13.12081891 -15 12 C-15 11.01 -15 10.02 -15 9 C-14.13375 9.33 -13.2675 9.66 -12.375 10 C-8.98923609 11.00318931 -6.50361036 11.31143203 -3 11 C-2.01 10.34 -1.02 9.68 0 9 C0.36362818 6.79274927 0.36362818 6.79274927 0.1875 4.375 C0.16042969 3.55773437 0.13335937 2.74046875 0.10546875 1.8984375 C0.05326172 0.95871094 0.05326172 0.95871094 0 0 Z " fill="#F4EADF" transform="translate(79,7)"/>
<path d="M0 0 C0.99 0.33 1.98 0.66 3 1 C4.41813412 3.91505348 5.28803516 6.84701285 6 10 C6.185625 10.7425 6.37125 11.485 6.5625 12.25 C6.7790625 13.11625 6.7790625 13.11625 7 14 C6.01 13.67 5.02 13.34 4 13 C3.67 11.35 3.34 9.7 3 8 C2.01 7.67 1.02 7.34 0 7 C0 4.69 0 2.38 0 0 Z " fill="#BFBE88" transform="translate(52,41)"/>
<path d="M0 0 C0.66 0 1.32 0 2 0 C3 3 3 3 1.8125 5.625 C0 8 0 8 -2.1875 8.8125 C-2.785625 8.874375 -3.38375 8.93625 -4 9 C-4.33 8.01 -4.66 7.02 -5 6 C-3.6875 3.8125 -3.6875 3.8125 -2 2 C-1.34 2 -0.68 2 0 2 C0 1.34 0 0.68 0 0 Z " fill="#E3E276" transform="translate(68,54)"/>
<path d="M0 0 C2.64 0 5.28 0 8 0 C7.34 1.98 6.68 3.96 6 6 C4.02 6 2.04 6 0 6 C0 4.02 0 2.04 0 0 Z " fill="#DDD8D4" transform="translate(54,16)"/>
<path d="M0 0 C0.33 0.66 0.66 1.32 1 2 C0 5 0 5 -2.5 6.4375 C-5.15872085 7.74552024 -5.15872085 7.74552024 -5.8125 10.1875 C-5.9053125 11.0846875 -5.9053125 11.0846875 -6 12 C-5.34 12 -4.68 12 -4 12 C-4.33 12.66 -4.66 13.32 -5 14 C-5.99 13.67 -6.98 13.34 -8 13 C-8.33 11.35 -8.66 9.7 -9 8 C-8.34 8 -7.68 8 -7 8 C-6.773125 7.4225 -6.54625 6.845 -6.3125 6.25 C-4.66961977 3.4336339 -2.60466773 1.91922886 0 0 Z " fill="#DC9824" transform="translate(58,57)"/>
<path d="M0 0 C2.97 0.33 5.94 0.66 9 1 C8.01 1.495 8.01 1.495 7 2 C7 2.66 7 3.32 7 4 C6.34 4 5.68 4 5 4 C4.67 4.99 4.34 5.98 4 7 C3.34 6.34 2.68 5.68 2 5 C-0.60280568 5.32041397 -0.60280568 5.32041397 -3 6 C-3 4 -3 4 -1.5 2.4375 C-0.7575 1.7259375 -0.7575 1.7259375 0 1 C0 0.67 0 0.34 0 0 Z " fill="#9F6A10" transform="translate(48,53)"/>
<path d="M0 0 C1.32 0 2.64 0 4 0 C4 0.66 4 1.32 4 2 C3.01 2.33 2.02 2.66 1 3 C0.01 4.485 0.01 4.485 -1 6 C-1.66 6 -2.32 6 -3 6 C-3 6.66 -3 7.32 -3 8 C2.01535052 7.67039784 2.01535052 7.67039784 6 5 C5.67 6.32 5.34 7.64 5 9 C1.6875 9.6875 1.6875 9.6875 -2 10 C-3.9375 8.5625 -3.9375 8.5625 -5 7 C-1.125 1.125 -1.125 1.125 0 0 Z " fill="#98972A" transform="translate(59,32)"/>
<path d="M0 0 C4.05281712 1.22527029 7.44360764 2.69880494 11 5 C10.67 6.65 10.34 8.3 10 10 C9.52949219 9.59007812 9.05898438 9.18015625 8.57421875 8.7578125 C7.95160156 8.21898437 7.32898437 7.68015625 6.6875 7.125 C6.07261719 6.59132813 5.45773438 6.05765625 4.82421875 5.5078125 C2.86501788 3.8359553 2.86501788 3.8359553 0 2 C0 1.34 0 0.68 0 0 Z " fill="#F0A829" transform="translate(30,33)"/>
<path d="M0 0 C0 0.66 0 1.32 0 2 C-0.99 2 -1.98 2 -3 2 C-2.67 2.99 -2.34 3.98 -2 5 C-2.66 5 -3.32 5 -4 5 C-4.33 5.99 -4.66 6.98 -5 8 C-7.475 7.01 -7.475 7.01 -10 6 C-6.56548857 1.21621622 -6.56548857 1.21621622 -3.875 0.1875 C-2 0 -2 0 0 0 Z " fill="#F3F38D" transform="translate(35,79)"/>
<path d="M0 0 C0.99 0.495 0.99 0.495 2 1 C2 1.99 2 2.98 2 4 C2.99 3.67 3.98 3.34 5 3 C5.59732819 5.76264289 6 8.16032769 6 11 C5.01 11 4.02 11 3 11 C0.08966924 7.33513904 -0.32136655 4.60625394 0 0 Z " fill="#756D3B" transform="translate(48,28)"/>
<path d="M0 0 C2.97 0.495 2.97 0.495 6 1 C5.01 1.495 5.01 1.495 4 2 C4.30035156 2.62648437 4.60070312 3.25296875 4.91015625 3.8984375 C5.29042969 4.71570313 5.67070312 5.53296875 6.0625 6.375 C6.63677734 7.59316406 6.63677734 7.59316406 7.22265625 8.8359375 C7.47917969 9.55007812 7.73570313 10.26421875 8 11 C7.67 11.66 7.34 12.32 7 13 C5.35 12.01 3.7 11.02 2 10 C2.33 7.36 2.66 4.72 3 2 C2.01 1.67 1.02 1.34 0 1 C0 0.67 0 0.34 0 0 Z " fill="#493F0F" transform="translate(24,60)"/>
<path d="M0 0 C1.08667969 0.29197266 1.08667969 0.29197266 2.1953125 0.58984375 C2.74960938 0.74582031 3.30390625 0.90179688 3.875 1.0625 C3.545 2.3825 3.215 3.7025 2.875 5.0625 C2.215 5.0625 1.555 5.0625 0.875 5.0625 C0.545 4.4025 0.215 3.7425 -0.125 3.0625 C-1.775 3.3925 -3.425 3.7225 -5.125 4.0625 C-5.455 2.7425 -5.785 1.4225 -6.125 0.0625 C-3.57797384 -1.21101308 -2.6967055 -0.73941925 0 0 Z " fill="#BFC2BD" transform="translate(76.125,34.9375)"/>
<path d="M0 0 C0.33 0.99 0.66 1.98 1 3 C1.66 3.66 2.32 4.32 3 5 C-4.42857143 7.14285714 -4.42857143 7.14285714 -8 8 C-8.33 7.34 -8.66 6.68 -9 6 C-8.34 5.01 -7.68 4.02 -7 3 C-5.68 3.33 -4.36 3.66 -3 4 C-2.01 2.68 -1.02 1.36 0 0 Z " fill="#DCB952" transform="translate(25,30)"/>
<path d="M0 0 C0.66 0 1.32 0 2 0 C2 0.66 2 1.32 2 2 C2.99 2.33 3.98 2.66 5 3 C5.33 4.65 5.66 6.3 6 8 C4.68 8.33 3.36 8.66 2 9 C2 8.34 2 7.68 2 7 C1.34 7 0.68 7 0 7 C0 4.69 0 2.38 0 0 Z " fill="#F8A50C" transform="translate(69,82)"/>
<path d="M0 0 C-0.5775 0.2475 -1.155 0.495 -1.75 0.75 C-4.3002997 2.16683317 -6.01785701 3.87627537 -8 6 C-10.5 4.625 -10.5 4.625 -13 3 C-13 2.34 -13 1.68 -13 1 C-8.20862412 -0.6290678 -4.94367454 -1.20577428 0 0 Z " fill="#A97D13" transform="translate(43,60)"/>
<path d="M0 0 C3.3 0 6.6 0 10 0 C10 0.66 10 1.32 10 2 C8.453125 2.12375 8.453125 2.12375 6.875 2.25 C2.47024613 3.10253301 0.51487063 4.34241489 -3 7 C-2.67 5.68 -2.34 4.36 -2 3 C-1.34 3 -0.68 3 0 3 C0 2.01 0 1.02 0 0 Z " fill="#F6F1E6" transform="translate(50,0)"/>
<path d="M0 0 C0.99 0 1.98 0 3 0 C3 0.66 3 1.32 3 2 C2.34 2 1.68 2 1 2 C1.33 3.65 1.66 5.3 2 7 C0.68 7.33 -0.64 7.66 -2 8 C-3.32 6.35 -4.64 4.7 -6 3 C-5.01 2.67 -4.02 2.34 -3 2 C-2.67 2.66 -2.34 3.32 -2 4 C-1.34 2.68 -0.68 1.36 0 0 Z " fill="#D7B476" transform="translate(62,73)"/>
<path d="M0 0 C0 3 0 3 -2.25 5.75 C-5 8 -5 8 -7.25 8 C-9 7 -9 7 -10 4 C-8.9171875 3.8453125 -8.9171875 3.8453125 -7.8125 3.6875 C-4.75508007 2.94013068 -2.61670365 1.71954811 0 0 Z " fill="#865B15" transform="translate(87,62)"/>
<path d="M0 0 C0.99 0.33 1.98 0.66 3 1 C3.33 2.65 3.66 4.3 4 6 C2.68 6.99 1.36 7.98 0 9 C-2 6 -2 6 -1.6875 3.9375 C-1 2 -1 2 0 0 Z " fill="#DC9926" transform="translate(81,53)"/>
<path d="M0 0 C0.66 0.33 1.32 0.66 2 1 C1.34 3.31 0.68 5.62 0 8 C-1.32 8 -2.64 8 -4 8 C-4.6875 6.1875 -4.6875 6.1875 -5 4 C-3.47698387 2.0418364 -2.21773977 1.10886989 0 0 Z " fill="#E9A728" transform="translate(25,36)"/>
<path d="M0 0 C2.375 -0.1875 2.375 -0.1875 5 0 C7 3 7 3 6.625 5.1875 C6.41875 5.785625 6.2125 6.38375 6 7 C5.236875 6.505 4.47375 6.01 3.6875 5.5 C1.07636249 3.75631692 1.07636249 3.75631692 -2 4 C-1.34 2.68 -0.68 1.36 0 0 Z " fill="#482606" transform="translate(38,23)"/>
<path d="M0 0 C0.66 0.33 1.32 0.66 2 1 C1.34 2.32 0.68 3.64 0 5 C0.99 5.33 1.98 5.66 3 6 C3 7.32 3 8.64 3 10 C2.01 10 1.02 10 0 10 C0 9.34 0 8.68 0 8 C-2.97 7.505 -2.97 7.505 -6 7 C-5.67 6.34 -5.34 5.68 -5 5 C-3.68 5 -2.36 5 -1 5 C-0.67 3.35 -0.34 1.7 0 0 Z " fill="#9C9E63" transform="translate(61,17)"/>
<path d="M0 0 C3.16115776 1.36983503 3.9927092 1.9890638 6 5 C6.125 7.6875 6.125 7.6875 6 10 C5.34 10 4.68 10 4 10 C1.2705095 6.38743905 0 4.52229581 0 0 Z " fill="#E8A11C" transform="translate(64,81)"/>
<path d="M0 0 C2.475 0.99 2.475 0.99 5 2 C5 2.99 5 3.98 5 5 C3.20759337 4.88610125 1.41605165 4.75852313 -0.375 4.625 C-1.87160156 4.52058594 -1.87160156 4.52058594 -3.3984375 4.4140625 C-6 4 -6 4 -8 2 C-5.36 2 -2.72 2 0 2 C0 1.34 0 0.68 0 0 Z " fill="#BD7307" transform="translate(38,53)"/>
<path d="M0 0 C3.67591895 1.0210886 4.9339798 1.91435217 7.3125 5 C9 8 9 8 9 10 C7.35 10 5.7 10 4 10 C4.0825 9.0925 4.165 8.185 4.25 7.25 C4.31024799 3.89958592 4.31024799 3.89958592 2 1.625 C1.34 1.08875 0.68 0.5525 0 0 Z " fill="#886832" transform="translate(75,83)"/>
<path d="M0 0 C1.9375 0.75 1.9375 0.75 4 2 C4.75 4.125 4.75 4.125 5 6 C4.67 5.34 4.34 4.68 4 4 C3.34 4 2.68 4 2 4 C1.34 5.98 0.68 7.96 0 10 C-0.66 9.67 -1.32 9.34 -2 9 C-2 8.34 -2 7.68 -2 7 C-1.34 7 -0.68 7 0 7 C-0.2784375 5.824375 -0.2784375 5.824375 -0.5625 4.625 C-1 2 -1 2 0 0 Z " fill="#F8A924" transform="translate(61,86)"/>
<path d="M0 0 C0 0.66 0 1.32 0 2 C0.66 2.33 1.32 2.66 2 3 C0.35 3.66 -1.3 4.32 -3 5 C-3.33 4.01 -3.66 3.02 -4 2 C-6.01508358 1.26676204 -6.01508358 1.26676204 -8 1 C-4.93251126 -0.86240388 -3.40254489 -1.2151946 0 0 Z " fill="#F0EFDF" transform="translate(78,67)"/>
<path d="M0 0 C0.66 0.33 1.32 0.66 2 1 C1.25 5.75 1.25 5.75 -1 8 C-2.32 7.67 -3.64 7.34 -5 7 C-3.35 4.69 -1.7 2.38 0 0 Z " fill="#1F130D" transform="translate(90,63)"/>
<path d="M0 0 C1.06546953 3.1964086 1.07427838 5.65747276 1 9 C1.66 9.33 2.32 9.66 3 10 C2.01 10.33 1.02 10.66 0 11 C-0.99 10.01 -1.98 9.02 -3 8 C-2.34 9.32 -1.68 10.64 -1 12 C-1.99 12 -2.98 12 -4 12 C-4.33 10.35 -4.66 8.7 -5 7 C-3.68 7 -2.36 7 -1 7 C-0.67 4.69 -0.34 2.38 0 0 Z " fill="#956419" transform="translate(26,37)"/>
<path d="M0 0 C0.33 1.32 0.66 2.64 1 4 C0.34 4 -0.32 4 -1 4 C-0.67 4.99 -0.34 5.98 0 7 C-2.97 6.505 -2.97 6.505 -6 6 C-6 5.01 -6 4.02 -6 3 C-5.01 3 -4.02 3 -3 3 C-2.67 2.34 -2.34 1.68 -2 1 C-1.67 1.33 -1.34 1.66 -1 2 C-0.67 1.34 -0.34 0.68 0 0 Z " fill="#F0A20F" transform="translate(60,89)"/>
<path d="M0 0 C1.67542976 0.28604898 3.34385343 0.61781233 5 1 C5 1.99 5 2.98 5 4 C5.33 4.66 5.66 5.32 6 6 C4.02 6 2.04 6 0 6 C-0.38218767 4.34385343 -0.71395102 2.67542976 -1 1 C-0.67 0.67 -0.34 0.34 0 0 Z " fill="#DCD676" transform="translate(42,80)"/>
<path d="M0 0 C0.99 0.33 1.98 0.66 3 1 C2.67 2.65 2.34 4.3 2 6 C2.66 6 3.32 6 4 6 C3.67 6.99 3.34 7.98 3 9 C2.54625 8.525625 2.0925 8.05125 1.625 7.5625 C0.06741796 5.90972192 0.06741796 5.90972192 -2 5 C-1.34 3.35 -0.68 1.7 0 0 Z " fill="#F0AB13" transform="translate(75,56)"/>
<path d="M0 0 C-1.90401138 1.90401138 -3.33425686 2.93520439 -6.046875 3.19921875 C-8.03233273 3.1886578 -10.0169914 3.09915043 -12 3 C-11.34 2.67 -10.68 2.34 -10 2 C-10 1.34 -10 0.68 -10 0 C-2.25 -1.125 -2.25 -1.125 0 0 Z " fill="#F1F682" transform="translate(72,47)"/>
<path d="M0 0 C1.875 0.625 1.875 0.625 4 2 C5.25 5.125 5.25 5.125 6 8 C5.34 8.66 4.68 9.32 4 10 C2.35 7.03 0.7 4.06 -1 1 C-0.67 0.67 -0.34 0.34 0 0 Z " fill="#F4EDDD" transform="translate(80,83)"/>
<path d="M0 0 C3.465 1.98 3.465 1.98 7 4 C6.67 4.66 6.34 5.32 6 6 C3.03 5.505 3.03 5.505 0 5 C-0.5625 3.0625 -0.5625 3.0625 -1 1 C-0.67 0.67 -0.34 0.34 0 0 Z " fill="#C9CEBE" transform="translate(18,57)"/>
<path d="M0 0 C6.625 -0.25 6.625 -0.25 10 2 C6.68885166 3.12880057 3.41021743 4.21302675 0 5 C0 3.35 0 1.7 0 0 Z " fill="#603302" transform="translate(43,51)"/>
<path d="M0 0 C0.66 0.33 1.32 0.66 2 1 C1.34 1.66 0.68 2.32 0 3 C0.22743305 5.95662966 0.61235938 7.55033688 2.5625 9.8125 C3.036875 10.204375 3.51125 10.59625 4 11 C0.21388773 10.45912682 -1.55400767 8.88277668 -4 6 C-4 5.34 -4 4.68 -4 4 C-3.34 4 -2.68 4 -2 4 C-1.34 2.68 -0.68 1.36 0 0 Z " fill="#67633E" transform="translate(6,85)"/>
<path d="M0 0 C3.96 0 7.92 0 12 0 C12 0.99 12 1.98 12 3 C8.04 3 4.08 3 0 3 C0 2.01 0 1.02 0 0 Z " fill="#F2F3DA" transform="translate(36,78)"/>
<path d="M0 0 C1.32 0.33 2.64 0.66 4 1 C4 1.99 4 2.98 4 4 C2.02 4.66 0.04 5.32 -2 6 C-2 3 -2 3 0 0 Z " fill="#F1E679" transform="translate(43,39)"/>
<path d="M0 0 C0.99 0 1.98 0 3 0 C3 1.65 3 3.3 3 5 C2.34 5 1.68 5 1 5 C1 5.66 1 6.32 1 7 C1.66 7.33 2.32 7.66 3 8 C1.35 9.32 -0.3 10.64 -2 12 C-1.34 8.04 -0.68 4.08 0 0 Z " fill="#9D6304" transform="translate(42,31)"/>
<path d="M0 0 C0.99 0 1.98 0 3 0 C3.28780586 3.05074215 3.45787911 5.96183742 3 9 C0.5 11.0625 0.5 11.0625 -2 12 C-1.690625 11.4225 -1.38125 10.845 -1.0625 10.25 C0.73256315 6.44868981 1.3049427 4.05982172 0 0 Z " fill="#772901" transform="translate(66,4)"/>
<path d="M0 0 C1.485 0.99 1.485 0.99 3 2 C3.1875 4.625 3.1875 4.625 3 7 C1.68 6.67 0.36 6.34 -1 6 C-1.042721 4.33388095 -1.04063832 2.66617115 -1 1 C-0.67 0.67 -0.34 0.34 0 0 Z " fill="#ECEC6E" transform="translate(25,89)"/>
<path d="M0 0 C0.66 0 1.32 0 2 0 C2 0.99 2 1.98 2 3 C2.66 3.66 3.32 4.32 4 5 C1 6 1 6 -3 6 C-2.42655063 3.13275314 -2.1385485 2.1385485 0 0 Z " fill="#ECEC70" transform="translate(17,81)"/>
<path d="M0 0 C0.66 0.33 1.32 0.66 2 1 C0.93106782 2.03590338 -0.15578488 3.05333942 -1.25 4.0625 C-2.15492187 4.91521484 -2.15492187 4.91521484 -3.078125 5.78515625 C-4.02945313 6.38650391 -4.02945313 6.38650391 -5 7 C-6.32 6.67 -7.64 6.34 -9 6 C-6.03 4.02 -3.06 2.04 0 0 Z " fill="#7F4B07" transform="translate(57,56)"/>
<path d="M0 0 C3.10652645 0.3358407 4.60414303 0.59049279 6.8125 2.875 C8 5 8 5 8 8 C7.01 8 6.02 8 5 8 C4.731875 7.05125 4.46375 6.1025 4.1875 5.125 C3.25013412 1.74732727 3.25013412 1.74732727 0 0 Z " fill="#F3F39C" transform="translate(60,23)"/>
<path d="M0 0 C5.53846154 0.61538462 5.53846154 0.61538462 7.875 2.5625 C8.431875 3.2740625 8.431875 3.2740625 9 4 C8.01 4.99 7.02 5.98 6 7 C5.38125 6.21625 4.7625 5.4325 4.125 4.625 C2.10141339 2.03162353 2.10141339 2.03162353 0 0 Z " fill="#9D853E" transform="translate(29,20)"/>
<path d="M0 0 C0.5625 1.9375 0.5625 1.9375 1 4 C0 5 0 5 -2.5625 5.0625 C-3.7690625 5.0315625 -3.7690625 5.0315625 -5 5 C-4.625 3.0625 -4.625 3.0625 -4 1 C-2 0 -2 0 0 0 Z " fill="#F7FA6E" transform="translate(35,83)"/>
<path d="M0 0 C2.97 1.98 2.97 1.98 6 4 C6.33 3.34 6.66 2.68 7 2 C7.99 3.65 8.98 5.3 10 7 C9.01 7 8.02 7 7 7 C7 6.34 7 5.68 7 5 C6.01 5.33 5.02 5.66 4 6 C2.62437146 4.71034824 1.29233607 3.37310707 0 2 C0 1.34 0 0.68 0 0 Z " fill="#7F5412" transform="translate(56,77)"/>
<path d="M0 0 C0.99 0.33 1.98 0.66 3 1 C3 2.32 3 3.64 3 5 C1.02 5 -0.96 5 -3 5 C-2.625 3.0625 -2.625 3.0625 -2 1 C-1.34 0.67 -0.68 0.34 0 0 Z " fill="#EFA928" transform="translate(45,45)"/>
<path d="M0 0 C0.99 0.33 1.98 0.66 3 1 C3.33 3.31 3.66 5.62 4 8 C3.01 7.67 2.02 7.34 1 7 C0.67 4.69 0.34 2.38 0 0 Z " fill="#67541F" transform="translate(15,43)"/>
<path d="M0 0 C0.66 0.33 1.32 0.66 2 1 C1 4 1 4 -0.6875 5.1875 C-3.54969093 6.19313465 -5.98827908 6.13689641 -9 6 C-6.66785852 4.79371992 -4.50357861 3.8345262 -2 3 C-1.34 2.01 -0.68 1.02 0 0 Z " fill="#A97E15" transform="translate(38,42)"/>
<path d="M0 0 C0.66 0.66 1.32 1.32 2 2 C1.9765625 4.1640625 1.9765625 4.1640625 1.625 6.625 C1.51414063 7.44226563 1.40328125 8.25953125 1.2890625 9.1015625 C1.19367187 9.72804688 1.09828125 10.35453125 1 11 C-1 9 -1 9 -1.23046875 7.08984375 C-1.11111111 1.11111111 -1.11111111 1.11111111 0 0 Z " fill="#875631" transform="translate(46,10)"/>
<path d="M0 0 C-0.33 0.99 -0.66 1.98 -1 3 C-3.31 3 -5.62 3 -8 3 C-8.33 2.34 -8.66 1.68 -9 1 C-5.92677456 0.08941469 -3.19902639 -0.08886184 0 0 Z " fill="#F6EEE6" transform="translate(84,93)"/>
<path d="M0 0 C1.38938077 1.96147874 2.7260411 3.96166576 4 6 C0.75791433 5.64950425 -0.61527704 5.43778819 -2.8125 2.9375 C-3.4003125 1.9784375 -3.4003125 1.9784375 -4 1 C-2 0 -2 0 0 0 Z " fill="#DEA62E" transform="translate(51,81)"/>
<path d="M0 0 C1.32 0 2.64 0 4 0 C4.33 1.65 4.66 3.3 5 5 C3.68 5.33 2.36 5.66 1 6 C1 5.34 1 4.68 1 4 C0.34 3.34 -0.32 2.68 -1 2 C-0.67 1.34 -0.34 0.68 0 0 Z " fill="#74501E" transform="translate(51,49)"/>
<path d="M0 0 C0.37125 0.639375 0.7425 1.27875 1.125 1.9375 C3.58052793 4.63858072 5.44578805 4.68407005 9 5 C8.01 6.485 8.01 6.485 7 8 C4.69 7.34 2.38 6.68 0 6 C-1.125 2.25 -1.125 2.25 0 0 Z " fill="#F7F892" transform="translate(65,38)"/>
<path d="M0 0 C1.52299523 2.93720508 2.80100302 5.9168649 4 9 C2.0625 8.375 2.0625 8.375 0 7 C-0.8125 3.9375 -0.8125 3.9375 -1 1 C-0.67 0.67 -0.34 0.34 0 0 Z " fill="#F1E47E" transform="translate(18,39)"/>
<path d="M0 0 C2.91517292 1.07401108 4.77810176 1.77810176 7 4 C3.71303767 4.79953138 2.28976808 5.09658936 -1 4 C-0.67 2.68 -0.34 1.36 0 0 Z " fill="#F1F8F5" transform="translate(62,18)"/>
<path d="M0 0 C0.33 0.99 0.66 1.98 1 3 C0.67 3.66 0.34 4.32 0 5 C-0.99 5.33 -1.98 5.66 -3 6 C-2.01 6.33 -1.02 6.66 0 7 C-1.32 7 -2.64 7 -4 7 C-3.67 5.02 -3.34 3.04 -3 1 C-2.01 0.67 -1.02 0.34 0 0 Z " fill="#DFD782" transform="translate(35,89)"/>
<path d="M0 0 C0.66 0 1.32 0 2 0 C2 0.66 2 1.32 2 2 C3.32 2.33 4.64 2.66 6 3 C5.67 3.66 5.34 4.32 5 5 C3.02 5 1.04 5 -1 5 C-0.67 3.35 -0.34 1.7 0 0 Z " fill="#E8A22F" transform="translate(45,62)"/>
<path d="M0 0 C0.99 0.33 1.98 0.66 3 1 C3 1.66 3 2.32 3 3 C3.66 3 4.32 3 5 3 C4.67 4.32 4.34 5.64 4 7 C3.34 7 2.68 7 2 7 C1.87625 6.360625 1.7525 5.72125 1.625 5.0625 C1.315625 4.0415625 1.315625 4.0415625 1 3 C0.34 2.67 -0.32 2.34 -1 2 C-0.67 1.34 -0.34 0.68 0 0 Z " fill="#A9AF44" transform="translate(57,48)"/>
<path d="M0 0 C1.98 0.495 1.98 0.495 4 1 C4.33 2.32 4.66 3.64 5 5 C3.68 5.33 2.36 5.66 1 6 C1 5.34 1 4.68 1 4 C0.34 3.67 -0.32 3.34 -1 3 C-0.67 2.01 -0.34 1.02 0 0 Z " fill="#F6F67E" transform="translate(59,26)"/>
<path d="M0 0 C0.66 0.33 1.32 0.66 2 1 C2 1.66 2 2.32 2 3 C2.66 3 3.32 3 4 3 C4 4.65 4 6.3 4 8 C3.34 8 2.68 8 2 8 C2 7.34 2 6.68 2 6 C1.34 5.67 0.68 5.34 0 5 C-0.33 4.01 -0.66 3.02 -1 2 C-0.67 1.34 -0.34 0.68 0 0 Z " fill="#B98425" transform="translate(30,23)"/>
<path d="M0 0 C0.99 0 1.98 0 3 0 C3.66 1.65 4.32 3.3 5 5 C3.68 5.33 2.36 5.66 1 6 C0.67 4.02 0.34 2.04 0 0 Z " fill="#A24503" transform="translate(48,18)"/>
<path d="M0 0 C0.99 0.33 1.98 0.66 3 1 C2.01 1.33 1.02 1.66 0 2 C-0.33 3.65 -0.66 5.3 -1 7 C-1.66 6.67 -2.32 6.34 -3 6 C-3 5.34 -3 4.68 -3 4 C-3.66 3.67 -4.32 3.34 -5 3 C-2.6875 1.4375 -2.6875 1.4375 0 0 Z " fill="#3A1D08" transform="translate(62,71)"/>
<path d="M0 0 C1.32 0 2.64 0 4 0 C4 0.66 4 1.32 4 2 C3.01 2.33 2.02 2.66 1 3 C0.01 4.485 0.01 4.485 -1 6 C-1.66 6 -2.32 6 -3 6 C-2.42655063 3.13275314 -2.1385485 2.1385485 0 0 Z " fill="#C0C356" transform="translate(59,32)"/>
<path d="M0 0 C1.125 1.5 1.125 1.5 2 4 C1.57598348 6.7773082 0.81108065 9.29639783 0 12 C-0.33 12 -0.66 12 -1 12 C-1.02687279 10.18757948 -1.04633715 8.37504767 -1.0625 6.5625 C-1.07410156 5.55316406 -1.08570313 4.54382813 -1.09765625 3.50390625 C-1 1 -1 1 0 0 Z " fill="#FCF4EA" transform="translate(45,4)"/>
<path d="M0 0 C1.65 1.65 3.3 3.3 5 5 C2.69 5 0.38 5 -2 5 C-1.34 3.35 -0.68 1.7 0 0 Z " fill="#F3F3EC" transform="translate(2,91)"/>
<path d="M0 0 C0.99 0.33 1.98 0.66 3 1 C3.33 3.31 3.66 5.62 4 8 C3.34 8 2.68 8 2 8 C0.74335022 5.09399739 0 3.20395416 0 0 Z " fill="#EDEE84" transform="translate(28,62)"/>
<path d="M0 0 C1.65 0 3.3 0 5 0 C5.33 0.99 5.66 1.98 6 3 C4.02 3 2.04 3 0 3 C0 2.01 0 1.02 0 0 Z " fill="#F1AA2D" transform="translate(38,57)"/>
<path d="M0 0 C1.98 0 3.96 0 6 0 C5.34 1.32 4.68 2.64 4 4 C2.68 3.34 1.36 2.68 0 2 C0 1.34 0 0.68 0 0 Z " fill="#5F3E1C" transform="translate(75,53)"/>
<path d="M0 0 C0.66 0.99 1.32 1.98 2 3 C1.34 4.32 0.68 5.64 0 7 C-0.66 7 -1.32 7 -2 7 C-1.125 1.125 -1.125 1.125 0 0 Z " fill="#15110D" transform="translate(69,35)"/>
<path d="M0 0 C1.32 0.33 2.64 0.66 4 1 C4 2.65 4 4.3 4 6 C2.68 5.34 1.36 4.68 0 4 C0 2.68 0 1.36 0 0 Z " fill="#F2A61F" transform="translate(38,30)"/>
<path d="M0 0 C5.75 0.75 5.75 0.75 8 3 C6 4 6 4 2.875 3.0625 C1.92625 2.711875 0.9775 2.36125 0 2 C0 1.34 0 0.68 0 0 Z " fill="#82512D" transform="translate(69,4)"/>
<path d="M0 0 C0.33 0.66 0.66 1.32 1 2 C-0.50663783 5.01327566 -3.03166411 5.61056618 -6 7 C-6 5.68 -6 4.36 -6 3 C-5.195625 2.690625 -4.39125 2.38125 -3.5625 2.0625 C-1.10919595 1.23664655 -1.10919595 1.23664655 0 0 Z " fill="#9E9A66" transform="translate(29,75)"/>
<path d="M0 0 C0.99 0 1.98 0 3 0 C3 0.66 3 1.32 3 2 C3.66 2.33 4.32 2.66 5 3 C4.01 3.99 3.02 4.98 2 6 C0.68 5.34 -0.64 4.68 -2 4 C-1.34 4 -0.68 4 0 4 C0 2.68 0 1.36 0 0 Z " fill="#FEFD8E" transform="translate(36,69)"/>
<path d="M0 0 C1.65 0 3.3 0 5 0 C5.33 0.66 5.66 1.32 6 2 C3.69 2.66 1.38 3.32 -1 4 C-0.67 2.68 -0.34 1.36 0 0 Z " fill="#E9E9E6" transform="translate(17,29)"/>
<path d="M0 0 C0.33 0.99 0.66 1.98 1 3 C-1.375 3.625 -1.375 3.625 -4 4 C-4.66 3.34 -5.32 2.68 -6 2 C-3 0 -3 0 0 0 Z " fill="#8E4B23" transform="translate(70,14)"/>
</svg>
